<svg xmlns="http://www.w3.org/2000/svg" version="1.1" xmlns:xlink="http://www.w3.org/1999/xlink" width="64" height="64"><svg xmlns="http://www.w3.org/2000/svg" version="1.1" xmlns:xlink="http://www.w3.org/1999/xlink" width="64" height="64"><svg version="1.0" id="Layer_1" xmlns="http://www.w3.org/2000/svg" xmlns:xlink="http://www.w3.org/1999/xlink" x="0px" y="0px" viewBox="0 0 64 64" style="enable-background:new 0 0 64 64;" xml:space="preserve">
<g>
	<g>
		<g>
			<path style="fill:#D4AF37;" d="M32.07,5.61c0.1,0,0.2,0,0.3,0V5.61C32.27,5.61,32.17,5.61,32.07,5.61z M17.17,23.95
				c0,0-5.23-1.45-5.84-1.59c-0.61-0.14-1.29-0.29-2.15,0.44c-0.87,0.73-0.77,2.86-0.77,2.86c0-0.04,0.34,0,0.87,0
				c0-1.36,0.03-1.74,0.53-2.25c0.5-0.51,1.36-0.19,1.36-0.19l6.42,1.74c0,0,1.17,0.2,1.79,0.93
				C18.95,24.34,17.17,23.95,17.17,23.95z M54.95,22.8c-0.87-0.73-1.54-0.58-2.15-0.44c-0.61,0.14-5.84,1.59-5.84,1.59
				s-1.78,0.39-2.22,1.93c0.62-0.73,1.79-0.93,1.79-0.93l6.42-1.74c0,0,0.87-0.32,1.36,0.19c0.5,0.51,0.53,0.9,0.53,2.25
				c0.53,0,0.87-0.04,0.87,0C55.72,25.66,55.82,23.52,54.95,22.8z M31.77,5.61L31.77,5.61c0.1,0.01,0.2,0,0.3,0
				C31.96,5.61,31.86,5.61,31.77,5.61z M50.16,17.2c-0.67-1.39-3.09-6.1-4.16-7.39c-0.14-0.17-0.52-0.74-1.43-1.23
				c-0.73-0.38-1.78-0.41-1.88-0.42c-2.72-0.34-8.18-0.6-10.53-0.6h-0.17c-2.34,0-7.81,0.27-10.53,0.6
				c-0.1,0.02-1.15,0.04-1.88,0.42c-0.91,0.48-1.29,1.06-1.43,1.23c-1.08,1.29-3.5,6-4.16,7.39c-0.47,0.86-0.15,1.3,0.57,1.98
				c0.76,0.71,2.58,1.48,3.37,1.86c1.17,0.56,3.06,2.01,3.91,3.65c-0.02-0.07-0.63-2.17-2.43-3.62c-1.05-0.84-1.35-0.94-1.93-1.21
				c-0.57-0.26-1.9-0.86-2.57-1.52c-0.01-0.01-0.01-0.04,0.01-0.04c1.47-0.16,7.06-0.42,9.78-0.5c2.29-0.06,5.8-0.08,6.93-0.09
				l0.11,0l0.43,0c0,0,4.53,0.01,7.29,0.09c2.73,0.08,8.31,0.34,9.78,0.5c0.02,0,0.03,0.03,0.01,0.04c-0.67,0.66-2,1.26-2.57,1.52
				c-0.58,0.27-0.88,0.37-1.93,1.21c-1.8,1.44-2.41,3.55-2.43,3.62c0.85-1.64,2.74-3.09,3.91-3.65c0.79-0.38,2.61-1.15,3.37-1.86
				C50.31,18.5,50.62,18.07,50.16,17.2z M49.71,17.47c-4.99-0.46-17.56-0.63-17.56-0.63l-0.17,0v0c0,0-0.14,0-0.4,0.01l-0.07,0
				c-2.31,0.04-12.68,0.22-17.1,0.62c-0.03,0-0.05-0.03-0.04-0.05c0.59-1.56,1.65-3.27,1.65-3.27s1.67-3.43,2.73-4.36
				c0.18-0.16,0.46-0.51,0.84-0.7c0.54-0.28,1.03-0.42,1.85-0.49c1.02-0.09,5.64-0.57,10.54-0.57h0.17c4.91,0,9.53,0.47,10.54,0.57
				C43.51,8.66,44,8.8,44.54,9.08c0.38,0.19,0.66,0.54,0.84,0.7c1.06,0.93,2.73,4.36,2.73,4.36s1.05,1.72,1.65,3.27
				C49.76,17.44,49.74,17.47,49.71,17.47z M31.58,16.84l0.4,0v0C31.98,16.83,31.84,16.84,31.58,16.84z M31.58,16.84l0.4,0v0
				C31.98,16.83,31.84,16.84,31.58,16.84z M13.86,11.43c-0.02-0.03-0.05-0.04-0.08-0.05c-0.03-0.01-0.07-0.03-0.1-0.04
				c-0.04-0.01-0.07-0.02-0.11-0.03c-0.07-0.02-0.15-0.02-0.23-0.02c-0.16,0-0.32,0.02-0.48,0.08c-0.1,0.04-0.19,0.1-0.29,0.16
				c-0.06,0.04-0.11,0.08-0.16,0.12c-0.09,0.08-0.17,0.17-0.24,0.27c-0.03,0.04-0.05,0.09-0.07,0.14c-0.02,0.06-0.04,0.13-0.04,0.19
				c0,0.01,0,0.02,0.01,0.02c0.01,0,0.01,0,0.02-0.01c0.03-0.03,0.06-0.07,0.09-0.1c0.04-0.03,0.07-0.06,0.11-0.09
				c0.11-0.09,0.23-0.18,0.35-0.26c0.23-0.16,0.46-0.21,0.63-0.24c0.1-0.02,0.23-0.03,0.31-0.03c0.05,0,0.1,0,0.14-0.01
				c0.04,0,0.08-0.01,0.11-0.03c0.01-0.01,0.02-0.02,0.02-0.03C13.87,11.45,13.87,11.44,13.86,11.43z M9.86,12.81
				c-0.27-0.02-0.49,0.2-0.49,0.2c-0.12,0.11-0.19,0.26-0.18,0.44c0,0.1,0.02,0.17,0.1,0.09c0.01-0.01,0.01-0.01,0.02-0.02
				c0.13-0.13,0.27-0.25,0.41-0.36C9.92,13,10.09,12.83,9.86,12.81z M6.97,19.11c-0.13,0-0.24,0.28-0.24,0.46
				c0,0.19,0.05,0.46,0.18,0.46c0.05,0,0.07-0.14,0.09-0.46C7.02,19.25,7.01,19.11,6.97,19.11z M13.86,11.43
				c-0.02-0.03-0.05-0.04-0.08-0.05c-0.03-0.01-0.07-0.03-0.1-0.04c-0.04-0.01-0.07-0.02-0.11-0.03c-0.07-0.02-0.15-0.02-0.23-0.02
				c-0.16,0-0.32,0.02-0.48,0.08c-0.1,0.04-0.19,0.1-0.29,0.16c-0.06,0.04-0.11,0.08-0.16,0.12c-0.09,0.08-0.17,0.17-0.24,0.27
				c-0.03,0.04-0.05,0.09-0.07,0.14c-0.02,0.06-0.04,0.13-0.04,0.19c0,0.01,0,0.02,0.01,0.02c0.01,0,0.01,0,0.02-0.01
				c0.03-0.03,0.06-0.07,0.09-0.1c0.04-0.03,0.07-0.06,0.11-0.09c0.11-0.09,0.23-0.18,0.35-0.26c0.23-0.16,0.46-0.21,0.63-0.24
				c0.1-0.02,0.23-0.03,0.31-0.03c0.05,0,0.1,0,0.14-0.01c0.04,0,0.08-0.01,0.11-0.03c0.01-0.01,0.02-0.02,0.02-0.03
				C13.87,11.45,13.87,11.44,13.86,11.43z M9.86,12.81c-0.27-0.02-0.49,0.2-0.49,0.2c-0.12,0.11-0.19,0.26-0.18,0.44
				c0,0.1,0.02,0.17,0.1,0.09c0.01-0.01,0.01-0.01,0.02-0.02c0.13-0.13,0.27-0.25,0.41-0.36C9.92,13,10.09,12.83,9.86,12.81z
				 M6.97,19.11c-0.13,0-0.24,0.28-0.24,0.46c0,0.19,0.05,0.46,0.18,0.46c0.05,0,0.07-0.14,0.09-0.46
				C7.02,19.25,7.01,19.11,6.97,19.11z M6.97,19.11c-0.13,0-0.24,0.28-0.24,0.46c0,0.19,0.05,0.46,0.18,0.46
				c0.05,0,0.07-0.14,0.09-0.46C7.02,19.25,7.01,19.11,6.97,19.11z M9.86,12.81c-0.27-0.02-0.49,0.2-0.49,0.2
				c-0.12,0.11-0.19,0.26-0.18,0.44c0,0.1,0.02,0.17,0.1,0.09c0.01-0.01,0.01-0.01,0.02-0.02c0.13-0.13,0.27-0.25,0.41-0.36
				C9.92,13,10.09,12.83,9.86,12.81z M13.86,11.43c-0.02-0.03-0.05-0.04-0.08-0.05c-0.03-0.01-0.07-0.03-0.1-0.04
				c-0.04-0.01-0.07-0.02-0.11-0.03c-0.07-0.02-0.15-0.02-0.23-0.02c-0.16,0-0.32,0.02-0.48,0.08c-0.1,0.04-0.19,0.1-0.29,0.16
				c-0.06,0.04-0.11,0.08-0.16,0.12c-0.09,0.08-0.17,0.17-0.24,0.27c-0.03,0.04-0.05,0.09-0.07,0.14c-0.02,0.06-0.04,0.13-0.04,0.19
				c0,0.01,0,0.02,0.01,0.02c0.01,0,0.01,0,0.02-0.01c0.03-0.03,0.06-0.07,0.09-0.1c0.04-0.03,0.07-0.06,0.11-0.09
				c0.11-0.09,0.23-0.18,0.35-0.26c0.23-0.16,0.46-0.21,0.63-0.24c0.1-0.02,0.23-0.03,0.31-0.03c0.05,0,0.1,0,0.14-0.01
				c0.04,0,0.08-0.01,0.11-0.03c0.01-0.01,0.02-0.02,0.02-0.03C13.87,11.45,13.87,11.44,13.86,11.43z M6.97,19.11
				c-0.13,0-0.24,0.28-0.24,0.46c0,0.19,0.05,0.46,0.18,0.46c0.05,0,0.07-0.14,0.09-0.46C7.02,19.25,7.01,19.11,6.97,19.11z
				 M9.86,12.81c-0.27-0.02-0.49,0.2-0.49,0.2c-0.12,0.11-0.19,0.26-0.18,0.44c0,0.1,0.02,0.17,0.1,0.09
				c0.01-0.01,0.01-0.01,0.02-0.02c0.13-0.13,0.27-0.25,0.41-0.36C9.92,13,10.09,12.83,9.86,12.81z M13.86,11.43
				c-0.02-0.03-0.05-0.04-0.08-0.05c-0.03-0.01-0.07-0.03-0.1-0.04c-0.04-0.01-0.07-0.02-0.11-0.03c-0.07-0.02-0.15-0.02-0.23-0.02
				c-0.16,0-0.32,0.02-0.48,0.08c-0.1,0.04-0.19,0.1-0.29,0.16c-0.06,0.04-0.11,0.08-0.16,0.12c-0.09,0.08-0.17,0.17-0.24,0.27
				c-0.03,0.04-0.05,0.09-0.07,0.14c-0.02,0.06-0.04,0.13-0.04,0.19c0,0.01,0,0.02,0.01,0.02c0.01,0,0.01,0,0.02-0.01
				c0.03-0.03,0.06-0.07,0.09-0.1c0.04-0.03,0.07-0.06,0.11-0.09c0.11-0.09,0.23-0.18,0.35-0.26c0.23-0.16,0.46-0.21,0.63-0.24
				c0.1-0.02,0.23-0.03,0.31-0.03c0.05,0,0.1,0,0.14-0.01c0.04,0,0.08-0.01,0.11-0.03c0.01-0.01,0.02-0.02,0.02-0.03
				C13.87,11.45,13.87,11.44,13.86,11.43z M13.86,11.43c-0.02-0.03-0.05-0.04-0.08-0.05c-0.03-0.01-0.07-0.03-0.1-0.04
				c-0.04-0.01-0.07-0.02-0.11-0.03c-0.07-0.02-0.15-0.02-0.23-0.02c-0.16,0-0.32,0.02-0.48,0.08c-0.1,0.04-0.19,0.1-0.29,0.16
				c-0.06,0.04-0.11,0.08-0.16,0.12c-0.09,0.08-0.17,0.17-0.24,0.27c-0.03,0.04-0.05,0.09-0.07,0.14c-0.02,0.06-0.04,0.13-0.04,0.19
				c0,0.01,0,0.02,0.01,0.02c0.01,0,0.01,0,0.02-0.01c0.03-0.03,0.06-0.07,0.09-0.1c0.04-0.03,0.07-0.06,0.11-0.09
				c0.11-0.09,0.23-0.18,0.35-0.26c0.23-0.16,0.46-0.21,0.63-0.24c0.1-0.02,0.23-0.03,0.31-0.03c0.05,0,0.1,0,0.14-0.01
				c0.04,0,0.08-0.01,0.11-0.03c0.01-0.01,0.02-0.02,0.02-0.03C13.87,11.45,13.87,11.44,13.86,11.43z M9.86,12.81
				c-0.27-0.02-0.49,0.2-0.49,0.2c-0.12,0.11-0.19,0.26-0.18,0.44c0,0.1,0.02,0.17,0.1,0.09c0.01-0.01,0.01-0.01,0.02-0.02
				c0.13-0.13,0.27-0.25,0.41-0.36C9.92,13,10.09,12.83,9.86,12.81z M6.97,19.11c-0.13,0-0.24,0.28-0.24,0.46
				c0,0.19,0.05,0.46,0.18,0.46c0.05,0,0.07-0.14,0.09-0.46C7.02,19.25,7.01,19.11,6.97,19.11z M13.51,8.73
				c0,0.39-0.32,0.71-0.71,0.71c-0.39,0-0.71-0.32-0.71-0.71c0-0.39,0.32-0.71,0.71-0.71C13.19,8.02,13.51,8.34,13.51,8.73z
				 M12.8,8.32c-0.23,0-0.41,0.19-0.41,0.41c0,0.23,0.19,0.41,0.41,0.41c0.23,0,0.41-0.19,0.41-0.41C13.21,8.5,13.03,8.32,12.8,8.32
				z M30.11,2.4c0,0.39-0.32,0.71-0.71,0.71s-0.71-0.32-0.71-0.71s0.32-0.71,0.71-0.71S30.11,2.01,30.11,2.4z M29.4,1.99
				c-0.23,0-0.41,0.19-0.41,0.41s0.19,0.41,0.41,0.41s0.41-0.19,0.41-0.41S29.63,1.99,29.4,1.99z M53.44,10.41
				c0,0.31-0.25,0.56-0.56,0.56c-0.31,0-0.56-0.25-0.56-0.56s0.25-0.56,0.56-0.56C53.19,9.85,53.44,10.1,53.44,10.41z M52.89,10.09
				c-0.18,0-0.33,0.15-0.33,0.33s0.15,0.33,0.33,0.33c0.18,0,0.33-0.15,0.33-0.33S53.07,10.09,52.89,10.09z M53.38,12.52
				c0,0.52-0.42,0.94-0.94,0.94s-0.94-0.42-0.94-0.94s0.42-0.94,0.94-0.94S53.38,12,53.38,12.52z M52.44,11.88
				c-0.35,0-0.64,0.29-0.64,0.64c0,0.35,0.29,0.64,0.64,0.64s0.64-0.29,0.64-0.64C53.08,12.17,52.79,11.88,52.44,11.88z M10.89,9.47
				c0,0.7-0.57,1.28-1.28,1.28c-0.7,0-1.28-0.57-1.28-1.28c0-0.7,0.57-1.28,1.28-1.28C10.32,8.19,10.89,8.76,10.89,9.47z M9.61,8.48
				c-0.54,0-0.99,0.44-0.99,0.99c0,0.54,0.44,0.99,0.99,0.99s0.99-0.44,0.99-0.99C10.6,8.92,10.16,8.48,9.61,8.48z M8.85,9.53
				c0,0.03,0.01,0.05,0.03,0.07C8.9,9.61,8.92,9.61,8.94,9.61c0.02,0,0.04-0.02,0.05-0.03C9.01,9.55,9.02,9.5,9.02,9.47
				c0.01-0.04,0.02-0.08,0.04-0.11C9.11,9.22,9.18,9.12,9.3,9.04c0.07-0.05,0.14-0.09,0.22-0.13c0.04-0.02,0.18-0.04,0.2-0.1
				c0-0.02,0-0.04-0.01-0.05C9.67,8.73,9.62,8.71,9.58,8.71c-0.19-0.02-0.4,0.09-0.52,0.22C8.91,9.08,8.82,9.3,8.85,9.53z
				 M42.65,2.3c-0.64,0.03-1.18-0.45-1.21-1.09S41.89,0.04,42.52,0s1.18,0.45,1.21,1.09S43.28,2.27,42.65,2.3z M42.61,0.52
				c-0.05,0-0.1,0.01-0.13,0.03c-0.01,0.01-0.02,0.02-0.01,0.03c0,0.01,0.01,0.01,0.01,0.02c0.06,0.05,0.13,0.07,0.2,0.1
				c0.15,0.06,0.26,0.18,0.34,0.32c0.02,0.03,0.04,0.07,0.05,0.1c0.01,0.03,0.02,0.07,0.06,0.08c0.04,0.01,0.06-0.04,0.07-0.07
				c0.01-0.21-0.07-0.41-0.26-0.52c-0.02-0.01-0.05-0.03-0.07-0.04c-0.06-0.03-0.13-0.04-0.2-0.05C42.66,0.52,42.64,0.52,42.61,0.52
				z M43.42,1.11C43.4,0.65,43,0.29,42.54,0.32c-0.46,0.02-0.82,0.42-0.79,0.88s0.42,0.82,0.88,0.79
				C43.09,1.97,43.45,1.57,43.42,1.11z M33.14,3.73c-0.12-0.09-0.32-0.1-0.47-0.1c-0.16,0-0.33,0.03-0.48,0.08
				c-0.48,0.15-0.91,0.52-1.05,1.02c-0.03,0.09,0.02,0.08,0.05,0.04c0.22-0.24,0.46-0.44,0.73-0.6c0.37-0.22,0.75-0.31,1.17-0.37
				c0.03,0,0.06-0.02,0.06-0.04C33.16,3.74,33.15,3.73,33.14,3.73z M39.1,2.83c-0.12-0.06-0.35-0.1-0.48-0.09
				c-0.16,0-0.27,0.01-0.42,0.05c-0.43,0.11-0.86,0.53-0.99,0.94c-0.03,0.08,0.02,0.07,0.05,0.04c0.21-0.22,0.44-0.41,0.69-0.54
				c0.32-0.17,0.72-0.25,1.11-0.3c0.03,0,0.06-0.02,0.06-0.04C39.12,2.87,39.14,2.85,39.1,2.83z M47.64,4.55
				c-0.06-0.14-0.14-0.24-0.24-0.36c-0.24-0.28-0.58-0.44-1.03-0.36c-0.08,0.02-0.06,0.07-0.03,0.08c0.31,0.11,0.64,0.3,0.81,0.47
				c0.25,0.25,0.35,0.49,0.46,0.75c0.01,0.02,0.03,0.09,0.05,0.1c0.03,0.02,0.05-0.19,0.05-0.25C47.71,4.85,47.69,4.68,47.64,4.55z
				 M48.99,8.2c-0.01-0.17-0.09-0.34-0.22-0.45c-0.06-0.05-0.13-0.08-0.18-0.09c-0.14-0.02-0.14,0.01-0.08,0.16
				c0.06,0.15,0.15,0.32,0.22,0.51c0.07,0.17,0.15,0.49,0.23,0.29C49,8.5,49,8.33,48.99,8.2z M33.14,3.73
				c-0.12-0.09-0.32-0.1-0.47-0.1c-0.16,0-0.33,0.03-0.48,0.08c-0.48,0.15-0.91,0.52-1.05,1.02c-0.03,0.09,0.02,0.08,0.05,0.04
				c0.22-0.24,0.46-0.44,0.73-0.6c0.37-0.22,0.75-0.31,1.17-0.37c0.03,0,0.06-0.02,0.06-0.04C33.16,3.74,33.15,3.73,33.14,3.73z
				 M39.1,2.83c-0.12-0.06-0.35-0.1-0.48-0.09c-0.16,0-0.27,0.01-0.42,0.05c-0.43,0.11-0.86,0.53-0.99,0.94
				c-0.03,0.08,0.02,0.07,0.05,0.04c0.21-0.22,0.44-0.41,0.69-0.54c0.32-0.17,0.72-0.25,1.11-0.3c0.03,0,0.06-0.02,0.06-0.04
				C39.12,2.87,39.14,2.85,39.1,2.83z M47.64,4.55c-0.06-0.14-0.14-0.24-0.24-0.36c-0.24-0.28-0.58-0.44-1.03-0.36
				c-0.08,0.02-0.06,0.07-0.03,0.08c0.31,0.11,0.64,0.3,0.81,0.47c0.25,0.25,0.35,0.49,0.46,0.75c0.01,0.02,0.03,0.09,0.05,0.1
				c0.03,0.02,0.05-0.19,0.05-0.25C47.71,4.85,47.69,4.68,47.64,4.55z M48.99,8.2c-0.01-0.17-0.09-0.34-0.22-0.45
				c-0.06-0.05-0.13-0.08-0.18-0.09c-0.14-0.02-0.14,0.01-0.08,0.16c0.06,0.15,0.15,0.32,0.22,0.51c0.07,0.17,0.15,0.49,0.23,0.29
				C49,8.5,49,8.33,48.99,8.2z M33.14,3.73c-0.12-0.09-0.32-0.1-0.47-0.1c-0.16,0-0.33,0.03-0.48,0.08
				c-0.48,0.15-0.91,0.52-1.05,1.02c-0.03,0.09,0.02,0.08,0.05,0.04c0.22-0.24,0.46-0.44,0.73-0.6c0.37-0.22,0.75-0.31,1.17-0.37
				c0.03,0,0.06-0.02,0.06-0.04C33.16,3.74,33.15,3.73,33.14,3.73z M39.1,2.83c-0.12-0.06-0.35-0.1-0.48-0.09
				c-0.16,0-0.27,0.01-0.42,0.05c-0.43,0.11-0.86,0.53-0.99,0.94c-0.03,0.08,0.02,0.07,0.05,0.04c0.21-0.22,0.44-0.41,0.69-0.54
				c0.32-0.17,0.72-0.25,1.11-0.3c0.03,0,0.06-0.02,0.06-0.04C39.12,2.87,39.14,2.85,39.1,2.83z M47.64,4.55
				c-0.06-0.14-0.14-0.24-0.24-0.36c-0.24-0.28-0.58-0.44-1.03-0.36c-0.08,0.02-0.06,0.07-0.03,0.08c0.31,0.11,0.64,0.3,0.81,0.47
				c0.25,0.25,0.35,0.49,0.46,0.75c0.01,0.02,0.03,0.09,0.05,0.1c0.03,0.02,0.05-0.19,0.05-0.25C47.71,4.85,47.69,4.68,47.64,4.55z
				 M48.99,8.2c-0.01-0.17-0.09-0.34-0.22-0.45c-0.06-0.05-0.13-0.08-0.18-0.09c-0.14-0.02-0.14,0.01-0.08,0.16
				c0.06,0.15,0.15,0.32,0.22,0.51c0.07,0.17,0.15,0.49,0.23,0.29C49,8.5,49,8.33,48.99,8.2z M57.86,13.32
				c-0.13-0.17-0.36-0.32-0.57-0.36c-0.09-0.02-0.2-0.04-0.29-0.01c-0.01,0-0.02,0.01-0.03,0.02c0,0.01,0.01,0.02,0.01,0.03
				c0.05,0.05,0.11,0.06,0.17,0.09c0.07,0.03,0.13,0.06,0.19,0.1c0.08,0.05,0.15,0.11,0.21,0.18c0.11,0.12,0.19,0.26,0.26,0.41
				c0.07,0.16,0.09,0.32,0.12,0.48c0,0.01,0.01,0.03,0.02,0.03c0.01,0,0.02-0.01,0.02-0.02c0.05-0.09,0.06-0.2,0.07-0.3
				C58.06,13.74,58,13.51,57.86,13.32z M57.86,13.32c-0.13-0.17-0.36-0.32-0.57-0.36c-0.09-0.02-0.2-0.04-0.29-0.01
				c-0.01,0-0.02,0.01-0.03,0.02c0,0.01,0.01,0.02,0.01,0.03c0.05,0.05,0.11,0.06,0.17,0.09c0.07,0.03,0.13,0.06,0.19,0.1
				c0.08,0.05,0.15,0.11,0.21,0.18c0.11,0.12,0.19,0.26,0.26,0.41c0.07,0.16,0.09,0.32,0.12,0.48c0,0.01,0.01,0.03,0.02,0.03
				c0.01,0,0.02-0.01,0.02-0.02c0.05-0.09,0.06-0.2,0.07-0.3C58.06,13.74,58,13.51,57.86,13.32z M57.86,13.32
				c-0.13-0.17-0.36-0.32-0.57-0.36c-0.09-0.02-0.2-0.04-0.29-0.01c-0.01,0-0.02,0.01-0.03,0.02c0,0.01,0.01,0.02,0.01,0.03
				c0.05,0.05,0.11,0.06,0.17,0.09c0.07,0.03,0.13,0.06,0.19,0.1c0.08,0.05,0.15,0.11,0.21,0.18c0.11,0.12,0.19,0.26,0.26,0.41
				c0.07,0.16,0.09,0.32,0.12,0.48c0,0.01,0.01,0.03,0.02,0.03c0.01,0,0.02-0.01,0.02-0.02c0.05-0.09,0.06-0.2,0.07-0.3
				C58.06,13.74,58,13.51,57.86,13.32z M58.77,13.98c0,0,0.04-0.97-0.87-1.52c-0.89-0.54-1.74-0.09-2.15,0.36
				c-0.01,0.01-0.03,0.02-0.05,0.01c-0.06-0.05-0.23-0.13-0.24-0.14c-0.1-0.05-0.21-0.08-0.32-0.09c-0.24-0.03-0.48,0.02-0.69,0.13
				c-0.26,0.14-0.45,0.4-0.53,0.68c-0.04,0.14-0.06,0.29-0.04,0.44c0.01,0.11,0.04,0.28,0.11,0.38c0.02,0.02,0,0.05-0.02,0.06
				c-0.22,0.04-0.41,0.11-0.55,0.23c-0.6,0.5-0.7,1.22-0.73,1.46c-0.03,0.24,0.01,0.83-0.56,0.99c-0.28-0.46-2.54-4.87-2.84-5.4
				l-0.21-0.4c-0.05-0.09-0.1-0.18-0.16-0.27l-0.12-0.2c-0.02-0.03-0.01-0.06,0.01-0.08c0.47-0.4,1.16-0.95,1.16-2.13
				c0-1.19-1.04-1.93-1.48-2.16c-0.02-0.01-0.03-0.04-0.02-0.06c0.3-0.56,0.35-1.42,0.1-1.97C48.3,3.73,47.68,2.8,46.47,2.8
				c-1.06,0-1.62,0.53-1.74,0.66c-0.01,0.02-0.04,0.02-0.06,0c-0.27-0.25-0.54-0.27-0.93-0.27c-0.39,0-0.75,0.22-1.11,0.63
				c-0.03,0.03-0.07,0.04-0.11,0.03c-0.26-0.11-0.49-0.15-1.01-0.11c-0.04,0-0.07-0.02-0.08-0.06c-0.27-0.9-1.2-1.93-2.69-1.97
				c-1.28-0.03-2.09,0.93-2.09,0.93s-0.48-0.42-1.19-0.42c-0.62,0-1.13,0.5-1.25,0.63c-0.02,0.02-0.04,0.02-0.07,0.01
				c-0.18-0.09-0.95-0.41-1.93-0.2c-1.24,0.28-1.9,1.2-2.11,1.58c-0.01,0.02-0.04,0.03-0.06,0.02c-0.3-0.2-1.13-0.27-1.77,0.15
				c-0.67,0.43-0.77,1.33-0.77,1.33c-1.12,0.06-3.96,0.26-6.18,0.53c-2.22,0.26-2.65,0.59-3.5,1.2c-0.85,0.61-1.57,1.76-1.57,1.76
				l-1.12,1.74c0,0-0.79-0.82-2.08-0.64c-1.01,0.14-1.66,0.8-2.08,1.72c-0.38-0.19-1.26-0.26-1.87,0.07
				c-0.83,0.5-1.05,1.21-1.1,1.72l0.02,0.6c0,0-0.86,0.08-1.51,0.65c-0.27,0.23-0.37,0.53-0.38,0.8c-0.02,0.23,0.03,0.46,0.12,0.68
				c-0.03,0-0.07,0.01-0.11,0.02c-0.11,0.03-0.22,0.09-0.32,0.16c-0.31,0.23-0.5,0.58-0.55,0.96c-0.05,0.42,0.12,0.99,0.71,1.36
				c0.02,0.01,0.02,0.03,0.02,0.05c-0.23,1,0.24,1.64,0.85,1.94c0.1,0.05,0.2,0.08,0.31,0.09c-1.01,1.48-1.15,4.51-1.15,4.51
				c0.06-0.06,0.54,0,0.91,0c0.25-4.95,2.23-5.28,3.7-6.04c1.18-0.62,1.52-1.14,1.88-1.73c0.22-0.39,0.32-0.59,0.36-0.68
				c0.03-0.07,0.07-0.15,0.1-0.22c0.38-0.8,2.09-4.34,3.55-6.58c1.58-2.43,2.73-2.94,3.9-3.18c3.44-0.6,9.44-0.7,11.35-0.72
				c0,0,0.01,0,0.02,0c0.45,0,7.93,0.02,11.93,0.72c1.17,0.24,2.31,0.74,3.9,3.18c1.45,2.23,3.17,5.78,3.55,6.58
				c0.04,0.07,0.07,0.15,0.1,0.22c0.04,0.09,0.13,0.28,0.36,0.68c0.36,0.59,0.71,1.11,1.88,1.73c1.47,0.76,3.45,1.09,3.7,6.04
				c0.37,0,0.7,0.01,0.86,0.01c-0.02-0.66-0.18-2.89-1.1-4.48l-0.05-0.07c-0.03-0.04-0.02-0.1,0.02-0.13
				c0.22-0.19,0.58-0.45,0.67-1.01c0.11-0.62-0.14-1-0.14-1s0.86-0.32,0.86-1.11c0-0.8-0.51-1.15-0.51-1.15
				c0.14-0.25,0.22-0.54,0.2-0.83c-0.01-0.14-0.04-0.29-0.11-0.43C57.89,15.46,58.77,15.02,58.77,13.98z M10.97,18.35
				c-0.14,0.1-0.71,0.52-1.03,0.66c-0.37,0.16-0.71,0.31-1.24,0.61c-0.34,0.19-0.76,0.6-1.02,0.87c-0.08,0.08-0.16,0.17-0.23,0.26h0
				c-0.57-0.1-0.95-0.58-1-1.02c-0.09-0.79,0.64-1.27,0.68-1.29c0.03-0.02,0.22-0.13,0.04-0.11c-0.18,0.01-0.62,0.23-0.67,0.27
				c-0.05,0.04-0.12,0.05-0.23,0c-0.25-0.14-0.49-0.34-0.47-0.82c0-0.11,0.12-0.41,0.3-0.58C6.26,17.04,6.5,17,6.52,17
				c0.03,0.04,0.06,0.07,0.09,0.1c0.06,0.06,0.12,0.12,0.18,0.17c0.38,0.32,0.85,0.53,1.34,0.62c0.74,0.14,1.89,0.29,2.25,0.33
				c0.34,0.04,0.52,0.07,0.59,0.08C10.98,18.32,10.99,18.34,10.97,18.35z M8.41,17.07c-0.33-0.05-1.06-0.19-1.36-0.83
				c-0.03-0.06-0.05-0.13-0.06-0.2c-0.03-0.35,0.27-0.54,1.07-0.71c0.67-0.14,1.65-0.27,1.94-0.19c0.2,0.05,0.47,0.21,0.57,0.69
				c0.07,0.34,0.06,0.38,0.08,0.62c0.02,0.24,0.12,0.61,0.52,1.02C11.18,17.47,8.76,17.13,8.41,17.07z M14.83,11.51
				c-0.31,0.53-2.54,4.99-2.82,5.45c-0.57-0.16-0.53-0.75-0.56-0.99c-0.03-0.24-0.13-0.96-0.73-1.46c-0.6-0.5-2.19-0.18-2.19-0.18
				s-0.27-1.16,0.83-1.76c0.56-0.26,1.44-0.36,2.13,0.43c0.2,0.23,0.32,0.47,0.35,0.66c0,0.01,0.01,0.01,0.01,0
				c0.06-0.19-0.03-0.64-0.46-1.09c0.18-0.7,0.54-1.47,1.66-1.71c1.03-0.23,1.84,0.52,1.84,0.52L14.83,11.51z M48.45,10.12
				l-0.56-0.88c0,0-0.72-1.15-1.57-1.76c-0.85-0.61-1.28-0.94-3.5-1.2c-2.22-0.26-5.06-0.47-6.18-0.53c-0.18,0-2.53-0.1-4.26-0.13
				c-0.1,0-0.2,0-0.3,0c-0.1,0-0.2,0-0.3,0c-1.29,0.02-2.93,0.08-3.75,0.11c0,0,0.08-0.72,0.77-1c0.73-0.31,1.23,0.08,1.5,0.31
				c0.02,0.02,0.06,0.01,0.07-0.02c0.21-0.71,0.67-1.2,1.2-1.55C32.09,3.1,32.99,3,33.63,3.19c0.64,0.18,1.19,0.55,1.4,0.8
				c0.2,0.24,0.25,0.26,0.2,0.14c-0.08-0.17-0.34-0.56-0.63-0.85c-0.02-0.02-0.03-0.06-0.01-0.08c0.17-0.22,0.54-0.45,0.87-0.45
				c0.35,0,0.67,0.14,0.95,0.4c0.02,0.02,0.03,0.05,0.02,0.08c-0.06,0.15-0.2,0.6-0.19,0.96c0.01,0.28,0.1,0.36,0.1,0.11
				c0.02-0.43,0.41-1.03,0.6-1.21c0.76-0.8,1.69-1.03,2.66-0.67c0.96,0.36,1.26,1.17,1.37,1.52c0.01,0.04,0.02,0.1-0.03,0.13
				c-0.55,0.39-0.73,0.8-0.8,1.11c-0.05,0.21,0,0.25,0.06,0.09c0.09-0.23,0.64-1.03,1.59-1.03s1.45,0.73,1.57,0.91
				c0.12,0.18,0.14,0.16,0.12,0.01c-0.06-0.28-0.24-0.58-0.45-0.83c-0.03-0.03-0.03-0.08-0.01-0.11c0.12-0.21,0.42-0.49,0.79-0.49
				c0.39,0,0.63,0.16,0.91,0.5c0.02,0.02,0.05,0.02,0.06,0c0.55-0.72,1.36-1.11,2.29-0.75c0.95,0.37,1.17,1.35,1.17,1.6
				c0,0.24-0.11,0.87-0.34,1.21c-0.02,0.03-0.05,0.05-0.09,0.05c-0.66,0.05-0.97,0.21-1.12,0.29c-0.16,0.08-0.18,0.13-0.01,0.09
				c0.16-0.05,0.48-0.09,0.8-0.09c0.74,0,1.45,0.51,1.65,0.83c0.19,0.31,0.37,0.55,0.31,1.39c-0.05,0.71-0.68,1.19-0.88,1.32
				C48.51,10.16,48.47,10.15,48.45,10.12z M53.48,16.45c0.02-0.24,0.01-0.28,0.08-0.62c0.1-0.47,0.38-0.64,0.57-0.69
				c0.3-0.08,1.27,0.05,1.94,0.19c0.8,0.17,1.1,0.36,1.07,0.71c-0.01,0.07-0.03,0.14-0.06,0.2c-0.31,0.64-1.03,0.78-1.36,0.83
				c-0.34,0.05-2.76,0.4-2.76,0.4C53.36,17.07,53.46,16.69,53.48,16.45z M57.89,17.74c0,0.59-0.55,0.87-0.78,0.87
				c-0.23,0-0.5-0.1-0.66-0.11c0.48,0.27,0.75,0.65,0.75,1.22c0,0.47-0.39,0.83-0.52,0.93c-0.02,0.02-0.06,0.02-0.08-0.01
				c-0.05-0.05-0.09-0.1-0.14-0.15c-0.26-0.27-0.68-0.68-1.02-0.87c-0.53-0.3-0.87-0.46-1.24-0.61c-0.32-0.14-0.89-0.55-1.03-0.66
				c-0.01-0.01-0.01-0.03,0.01-0.03c0.07-0.01,0.25-0.04,0.59-0.08c0.35-0.04,1.51-0.2,2.25-0.33c0.49-0.09,0.96-0.3,1.34-0.62
				c0.06-0.05,0.12-0.11,0.18-0.17c0.01-0.01,0.02-0.02,0.03-0.03C57.69,17.16,57.89,17.36,57.89,17.74z M57.73,15.09
				c-0.05,0.02-0.11,0.01-0.16-0.03c-0.54-0.45-1.22-0.59-1.41-0.62c-0.06-0.01-0.11-0.02-0.17-0.03l-0.4-0.07
				c0,0-0.53-0.11-1.09-0.1c-0.12,0-0.19-0.29-0.21-0.37c-0.05-0.29,0.05-0.59,0.3-0.76c0.2-0.14,0.51-0.18,0.73-0.05
				c0.18,0.11,0.32,0.3,0.4,0.49c0.01,0.02,0.03,0.02,0.04,0c0.03-0.06,0.09-0.15,0.1-0.17c0.05-0.09,0.11-0.17,0.17-0.25
				c0.13-0.16,0.3-0.3,0.49-0.39c0.41-0.2,0.91-0.15,1.29,0.11c0.35,0.25,0.55,0.66,0.55,1.08C58.37,14.59,57.96,15,57.73,15.09z"></path>
			<path style="fill:#D4AF37;" d="M26.36,12.16c0.01,0,0.01,0.01,0,0.01l-0.9,0.16c-0.13,0.03-0.55,0.13-0.68,0.16
				c-0.33,0.09-0.59,0.26-0.75,0.53c-0.07,0.12-0.17,0.37-0.24,0.61c-0.03,0.09-0.05,0.18-0.06,0.27l-0.17,1.1
				c0,0.02-0.03,0.02-0.03,0l-0.21-1.3c-0.02-0.09-0.04-0.18-0.08-0.27c-0.06-0.14-0.12-0.29-0.23-0.44
				c-0.16-0.22-0.31-0.32-0.6-0.45c-0.12-0.05-0.33-0.11-0.73-0.19l-0.98-0.19c-0.01,0-0.01-0.02,0-0.02l0.87-0.11
				c0.13-0.03,0.5-0.11,0.63-0.15c0.33-0.09,0.7-0.27,0.86-0.54c0.06-0.1,0.06-0.09,0.1-0.19c0.03-0.08,0.06-0.15,0.1-0.26
				c0.02-0.04,0.05-0.11,0.08-0.28c0.04-0.16,0.18-1.07,0.2-1.22c0.02-0.05,0.03-0.02,0.03,0c0.05,0.46,0.16,1.14,0.25,1.44
				c0.01,0.05,0.04,0.11,0.06,0.17c0.05,0.15,0.1,0.22,0.17,0.34c0.13,0.23,0.41,0.4,0.68,0.5c0.06,0.02,0.26,0.09,0.35,0.12
				c0.15,0.04,0.43,0.08,0.54,0.1C25.72,12.07,26.36,12.16,26.36,12.16z"></path>
			<path style="fill:#D4AF37;" d="M27.36,10.07C27.36,10.08,27.36,10.07,27.36,10.07l-0.38,0.07c-0.06,0.01-0.23,0.05-0.29,0.07
				c-0.14,0.04-0.27,0.11-0.33,0.22c-0.03,0.05-0.07,0.16-0.1,0.26c-0.01,0.04-0.02,0.09-0.03,0.13l-0.09,0.47
				c0,0.01-0.01,0.01-0.01,0l-0.04-0.29c-0.02-0.19-0.04-0.25-0.08-0.38c0,0,0,0,0,0c-0.02-0.06-0.07-0.15-0.11-0.22
				c-0.07-0.09-0.09-0.12-0.21-0.17c-0.05-0.02-0.14-0.05-0.31-0.08l-0.42-0.08c0,0,0-0.01,0-0.01l0.37-0.05
				c0.06-0.01,0.21-0.05,0.27-0.06c0.14-0.04,0.3-0.12,0.37-0.23c0.02-0.04,0.03-0.04,0.04-0.08C26,9.6,26.01,9.57,26.03,9.52
				c0.01-0.02,0.02-0.05,0.03-0.12c0.02-0.07,0.08-0.46,0.09-0.53c0.01-0.02,0.01-0.01,0.01,0c0.02,0.2,0.07,0.49,0.11,0.62
				c0,0.02,0.02,0.05,0.03,0.07c0.02,0.06,0.04,0.1,0.07,0.15c0.05,0.1,0.17,0.17,0.29,0.22c0.03,0.01,0.11,0.04,0.15,0.05
				c0.06,0.02,0.18,0.04,0.23,0.04L27.36,10.07z"></path>
		</g>
	</g>
	<g>
		<g>
			<path style="fill:#D4AF37;" d="M13.01,32.46c0,0-1.38-1.48-4.3-1.48c-1.46,0-3.22,0.32-4.16,1.56c-0.81,1.06-0.93,2.73-0.1,3.81
				c0.39,0.5,0.96,1.04,1.49,1.26c0.53,0.23,1.7,0.54,2.91,0.54c0.57,0,0.99-0.05,1.53-0.14c0,0,0.87-0.15,1.32-0.42v-3.43h3.46
				v5.23c-0.28,0.35-1.8,0.95-1.8,0.95c-0.53,0.19-1.35,0.42-2.13,0.55c-0.64,0.11-1.67,0.22-2.44,0.22c-2.35,0-5.06-0.54-6.62-1.89
				c-1.21-1.04-2.15-2.47-2.15-4.66c0-2.52,1.51-4.53,3.75-5.57c0.48-0.22,0.97-0.4,1.48-0.53c1.37-0.36,2.79-0.42,4.2-0.36
				c1.28,0.05,2.54,0.28,3.72,0.79c0.59,0.25,1.15,0.57,1.65,0.96c0.21,0.16,0.43,0.33,0.58,0.55l-2.19,1.92"></path>
			<path style="fill:#D4AF37;" d="M25.29,41.1c-1.53,0.01-3.07-0.18-4.48-0.76c-1.09-0.45-2.09-1.16-2.82-2.09
				c-0.8-1.01-1.15-2.26-1.17-3.54c0-0.04,0-0.09,0-0.13c0-1.23,0.36-2.5,1.07-3.51c0.71-1.02,1.84-1.75,2.97-2.24
				c0.43-0.18,0.87-0.33,1.31-0.45c1.47-0.38,3.01-0.42,4.52-0.26c2.51,0.26,4.93,1.2,6.25,3.48c0.38,0.67,0.65,1.4,0.76,2.16
				c0.38,2.59-1,5.07-3.29,6.26c-0.17,0.09-0.34,0.17-0.51,0.24c-1.32,0.56-2.77,0.77-4.21,0.81C25.56,41.1,25.42,41.1,25.29,41.1z
				 M25.29,38.16c1.06,0.01,2.13-0.2,3.02-0.78c0.87-0.57,1.45-1.57,1.52-2.62c0.09-1.21-0.54-2.29-1.52-2.96
				c-0.82-0.55-1.81-0.8-2.8-0.82c-0.92-0.03-1.85,0.13-2.69,0.51c-1.71,0.79-2.61,2.66-1.84,4.47c0.49,1.14,1.55,1.76,2.72,2.03
				c0.42,0.1,0.85,0.15,1.29,0.17C25.08,38.16,25.19,38.16,25.29,38.16z"></path>
			<path style="fill:#D4AF37;" d="M35.56,40.84V28.28h3.79v9.58h7.95v2.98H35.56z"></path>
			<path style="fill:#D4AF37;" d="M48.81,40.84V28.28h7.48c1.59,0,2.97,0.24,4.13,0.73c1.16,0.49,2.05,1.2,2.67,2.14
				c0.62,0.94,0.93,2.08,0.93,3.41c0,1.34-0.31,2.48-0.93,3.41c-0.62,0.94-1.51,1.65-2.67,2.14c-1.16,0.49-2.54,0.73-4.13,0.73
				H48.81z M52.65,37.88c0,0,3.31,0,3.31,0c1.78,0,3.74-0.65,4.13-2.64c0.27-1.41-0.22-2.76-1.6-3.45
				c-1.03-0.52-2.15-0.55-3.27-0.55c-0.79,0-1.58,0-2.37,0c-0.01,0-0.19,0-0.19,0C52.65,31.24,52.65,37.88,52.65,37.88z"></path>
		</g>
		<g>
			<path style="fill:#D4AF37;" d="M1.4,56.25c0,0,0-12.56,0-12.56c1.14,0,2.28,0,3.42,0c1.3,0,2.59,0.01,3.89,0
				c1.04-0.01,2.14,0.11,3.14,0.39c1,0.28,1.95,0.8,2.58,1.62c0.66,0.86,0.9,2,0.77,3.08c-0.19,1.55-1.31,2.58-2.65,3.24l3.13,4.23
				h-4.34l-2.57-3.62H5.2v3.62H1.4z M5.2,49.77c0,0,3.72,0,3.74,0c0.43,0,0.88-0.05,1.29-0.18c0.35-0.11,0.69-0.3,0.9-0.6
				c0.33-0.47,0.29-1.15-0.04-1.63c-0.4-0.58-1.16-0.81-1.84-0.81c0,0-4.05,0-4.05,0V49.77z"></path>
			<path style="fill:#D4AF37;" d="M24.19,56.55c-1.6,0-2.89-0.31-3.96-0.72c-1.11-0.43-1.91-1.27-2.42-2.2
				c-0.52-0.93-0.7-2.07-0.7-3.42v-6.52h3.84v6.32c0,1.05,0.1,1.99,0.75,2.64c0.55,0.55,1.56,0.84,2.49,0.84
				c0.93,0,2.12-0.32,2.63-0.91c0.51-0.58,0.63-1.53,0.63-2.57v-6.32h3.84v6.52c0,1.35-0.18,2.49-0.69,3.42
				c-0.72,1.32-1.39,1.72-2.44,2.2C27.11,56.31,25.79,56.55,24.19,56.55z"></path>
			<g>
				<path style="fill:none;" d="M37.68,51.16l-0.66-0.12c0.1,0.02,0.2,0.04,0.31,0.06C37.45,51.11,37.56,51.13,37.68,51.16z"></path>
				<path style="fill:#D4AF37;" d="M33.66,45.66c0.23-0.33,0.52-0.62,0.85-0.87c0.83-0.62,1.87-0.96,2.88-1.18
					c2.43-0.52,4.93-0.28,7.24,0.56c0.25,0.09,1.14,0.51,1.14,0.51s-1.28,2.69-1.28,2.69c0.05-0.11-1.32-0.61-1.43-0.64
					c-1.67-0.54-3.79-0.8-5.47-0.16c-0.27,0.1-0.64,0.35-0.64,0.68c0,0.01,0,0.02,0,0.03c0,0,0.01,0,0.01,0
					c0,0.5,0.59,0.7,0.98,0.82c0.67,0.21,1.36,0.33,2.06,0.41c-0.18-0.03-0.35-0.05-0.53-0.08c1.59,0.21,3.18,0.43,4.69,0.99
					c0.63,0.26,1.22,0.65,1.61,1.22c0.41,0.6,0.67,1.27,0.63,2c-0.01,0.2-0.04,0.41-0.1,0.6c-0.35,1.19-1.42,2.15-2.54,2.62
					c-2.32,0.97-5.21,0.92-7.64,0.35c-0.62-0.15-1.24-0.34-1.84-0.56c-0.12-0.04-1.54-0.72-1.53-0.73c0,0,1.39-2.67,1.39-2.67
					c0.27,0.26,1.91,0.85,2.42,0.99c0.95,0.25,1.93,0.43,2.92,0.45c0.83,0.01,2.13,0.01,2.76-0.59c0.09-0.08,0.16-0.18,0.19-0.3
					c0.04-0.16-0.01-0.34-0.11-0.48c-0.16-0.23-0.42-0.39-0.68-0.47c-0.72-0.23-1.51-0.29-2.26-0.42c-1.37-0.23-2.86-0.32-4.14-0.91
					c-0.91-0.42-2.13-1.38-2.13-2.51C32.95,47.17,33.19,46.34,33.66,45.66z"></path>
				<polygon style="fill:none;" points="42.43,52.67 42.42,52.67 42.42,52.66 				"></polygon>
			</g>
			<path style="fill:#D4AF37;" d="M48.02,56.25V43.69h3.82v4.6h6.98v-4.6h3.83v12.56h-3.83v-4.93h-6.98v4.93H48.02z"></path>
		</g>
		<g>
			<path style="fill:#D4AF37;" d="M1.4,64v-5.06c0,0,2.12,0,2.12,0c0.69,0,1.45,0.08,2.01,0.52c0.52,0.41,0.86,1.04,0.93,1.7
				c0.1,1.03-0.48,2.18-1.46,2.58C4.56,63.91,4.15,64,3.52,64H1.4z M2.08,63.44c0.86,0,1.87,0.15,2.66-0.23
				c0.27-0.13,0.52-0.33,0.7-0.57c0.43-0.57,0.51-1.38,0.21-2.03c-0.4-0.86-1.27-1.16-2.16-1.16H2.08
				C2.08,59.44,2.08,63.44,2.08,63.44z"></path>
			<path style="fill:#D4AF37;" d="M10.19,64v-5.06h3.75v0.5h-3.16v1.71h2.84v0.51h-2.84v1.84h3.27V64H10.19z"></path>
			<path style="fill:#D4AF37;" d="M18.95,64v-4.55h-1.89v-0.51h4.41v0.51h-1.91V64H18.95z"></path>
			<path style="fill:#D4AF37;" d="M23.77,64l2.45-5.06h0.66L29.41,64H28.7l-0.62-1.34h-3.01L24.43,64H23.77z M25.28,62.16h2.57
				l-1.29-2.66L25.28,62.16z"></path>
			<path style="fill:#D4AF37;" d="M37.59,64v-5.06h0.64v4.49h2.97V64H37.59z"></path>
			<path style="fill:#D4AF37;" d="M44.68,64v-5.06h0.65V64H44.68z"></path>
			<path style="fill:#D4AF37;" d="M32.77,64v-5.06h0.65V64H32.77z"></path>
			<path style="fill:#D4AF37;" d="M49.49,64v-5.06h0.63l2.87,3.5c0.03,0.03,0.07,0.08,0.12,0.14c0.05,0.06,0.09,0.12,0.14,0.18
				c0.05,0.06,0.09,0.12,0.12,0.17h0.04c0-0.08,0-0.17,0-0.25c0-0.08,0-0.16,0-0.24v-3.5h0.63V64h-0.57l-2.93-3.57
				c-0.04-0.05-0.1-0.13-0.18-0.23c-0.08-0.11-0.15-0.2-0.21-0.27h-0.03c0,0.08,0,0.17,0,0.25c0,0.08,0,0.17,0,0.25V64H49.49z"></path>
			<path style="fill:#D4AF37;" d="M62.21,60.01c-0.53-0.6-1.6-0.77-2.33-0.51c-0.25,0.09-0.49,0.23-0.7,0.4
				c-0.18,0.14-0.34,0.29-0.46,0.48c-0.59,0.91-0.22,2.2,0.65,2.79c0.31,0.21,0.77,0.31,1.14,0.32c0.29,0.01,0.75-0.02,1.16-0.15
				c0.21-0.07,0.31-0.23,0.31-0.23l0.01-1.24v-0.42h0.61c0,0,0,1.99,0,1.99c0,0.04-0.27,0.19-0.31,0.22c-0.56,0.38-1.34,0.41-2,0.36
				c-0.62-0.05-1.22-0.21-1.68-0.64c-0.42-0.39-0.69-0.93-0.78-1.5c-0.07-0.46-0.02-0.93,0.15-1.36c0.08-0.19,0.17-0.37,0.29-0.53
				c0.3-0.41,0.72-0.74,1.19-0.92c0.58-0.22,1.23-0.22,1.84-0.12c0.53,0.09,0.94,0.31,1.33,0.68"></path>
		</g>
	</g>
</g>
</svg></svg><style>@media (prefers-color-scheme: light) { :root { filter: none; } }
@media (prefers-color-scheme: dark) { :root { filter: none; } }
</style></svg>