<?xml version="1.0" encoding="UTF-8"?>
<svg id="Layer_1" xmlns="http://www.w3.org/2000/svg" version="1.1" viewBox="0 0 1200 1200">
  <!-- Generator: Adobe Illustrator 30.1.0, SVG Export Plug-In . SVG Version: 2.1.1 Build 136)  -->
  <path d="M0,0h1200v1200H0V0Z" style="fill: #191919;"/>
  <path d="M600.73,187.65l4.7.07v-.12l-4.7.05ZM368.02,474.09s-81.67-22.67-91.16-24.85-20.07-4.51-33.61,6.85-11.98,44.65-11.98,44.65c0-.62,5.29,0,13.54,0,0-21.17.46-27.23,8.25-35.16,7.78-7.94,21.31-2.96,21.31-2.96l100.35,27.23s18.35,3.11,28,14.46c-6.85-24.11-34.7-30.22-34.7-30.22M958.2,456.09c-13.53-11.36-24.12-9.02-33.6-6.85-9.49,2.18-91.17,24.85-91.17,24.85,0,0-27.84,6.11-34.69,30.22,9.65-11.36,28.01-14.46,28.01-14.46l100.34-27.23s13.54-4.98,21.32,2.96c7.78,7.93,8.25,14,8.25,35.16,8.25,0,13.53-.62,13.53,0,0,0,1.55-33.29-11.99-44.65M596.02,187.61v.12l4.71-.07c-1.63-.03-3.2-.04-4.71-.05M883.26,368.71c-10.41-21.69-48.19-95.32-65.03-115.44-2.21-2.64-8.14-11.63-22.4-19.14-11.42-6.01-27.81-6.36-29.38-6.61-42.5-5.26-127.85-9.4-164.45-9.4h-2.72c-36.6,0-121.95,4.15-164.45,9.4-1.57.24-17.95.59-29.37,6.61-14.27,7.51-20.19,16.5-22.4,19.14-16.84,20.12-54.63,93.75-65.04,115.44-7.28,13.5-2.41,20.29,8.93,30.91,11.86,11.09,40.37,23.16,52.64,29.06,18.27,8.79,47.82,31.45,61.07,57-.29-1.03-9.78-33.97-37.94-56.47-16.39-13.09-21.1-14.66-30.17-18.85-8.93-4.12-29.67-13.47-40.15-23.74-.21-.21-.08-.57.22-.61,23.01-2.45,110.25-6.61,152.83-7.82,35.73-1.01,90.57-1.29,108.18-1.35h1.73s6.65-.02,6.65-.02c0,0,70.8.15,113.85,1.37,42.57,1.21,129.82,5.37,152.83,7.82.29.04.42.4.21.61-10.48,10.27-31.22,19.61-40.14,23.74-9.08,4.19-13.79,5.76-30.18,18.85-28.16,22.51-37.65,55.45-37.94,56.47,13.26-25.54,42.8-48.21,61.07-57,12.27-5.9,40.79-17.97,52.64-29.06,11.33-10.62,16.2-17.41,8.91-30.91M876.34,372.82c-77.94-7.14-274.34-9.88-274.34-9.88l-2.72.03v-.03l-6.18.1h-1.03c-36.07.58-198.08,3.45-267.14,9.77-.33.03-.62-.2-.66-.53-.01-.1,0-.2.04-.29,9.29-24.29,25.71-51.15,25.71-51.15,0,0,26.09-53.5,42.58-68.1,2.81-2.5,7.24-7.92,13.15-10.96,8.41-4.32,16.02-6.53,28.84-7.68,15.88-1.44,88.03-8.84,164.69-8.84h2.72c76.66,0,148.8,7.4,164.69,8.84,12.82,1.16,20.43,3.36,28.84,7.68,5.91,3.03,10.33,8.46,13.15,10.96,16.49,14.6,42.57,68.1,42.57,68.1,0,0,16.42,26.86,25.71,51.15.13.31-.01.66-.32.79-.09.04-.2.06-.3.04M593.09,363.04l6.18-.07v-.03l-6.18.1ZM593.09,363.04l6.18-.07v-.03l-6.18.1ZM316.31,278.56c-.32-.4-.8-.6-1.26-.77-.53-.2-1.04-.44-1.58-.62-1.7-.56-3.47-.85-5.26-.86-2.56,0-5.03.29-7.44,1.2-1.62.61-3.03,1.5-4.46,2.45-.89.58-1.73,1.21-2.53,1.9-1.44,1.19-2.69,2.59-3.7,4.16-.43.69-.8,1.41-1.09,2.18-.38.96-.6,1.98-.63,3.02,0,.14.04.31.17.35.1.03.21-.04.3-.11.53-.45.94-1.03,1.46-1.5.56-.51,1.13-.99,1.72-1.46,1.75-1.43,3.56-2.78,5.43-4.06,3.54-2.42,7.19-3.23,9.87-3.79,1.59-.33,3.57-.51,4.85-.51.75,0,1.49-.04,2.23-.11.57-.06,1.29-.1,1.79-.42.18-.11.31-.29.34-.5,0-.2-.07-.4-.21-.55M253.84,300.14c-4.15-.3-7.59,3.11-7.59,3.11-1.89,1.75-2.94,4.23-2.88,6.8.02,1.52.26,2.73,1.49,1.38l.33-.33c2.02-2.03,4.17-3.91,6.44-5.65,3.2-2.45,5.76-5.05,2.21-5.31M208.68,398.53c-2.06,0-3.73,4.35-3.73,7.12,0,3,.81,7.11,2.87,7.11.78,0,1.11-2.26,1.38-7.14.27-4.95.11-7.09-.52-7.09M316.31,278.56c-.32-.4-.8-.6-1.26-.77-.53-.2-1.04-.44-1.58-.62-1.7-.56-3.47-.85-5.26-.86-2.56,0-5.03.29-7.44,1.2-1.62.61-3.03,1.5-4.46,2.45-.89.58-1.73,1.21-2.53,1.9-1.44,1.19-2.69,2.59-3.7,4.16-.43.69-.8,1.41-1.09,2.18-.38.96-.6,1.98-.63,3.02,0,.14.04.31.17.35.1.03.21-.04.3-.11.53-.45.94-1.03,1.46-1.5.56-.51,1.13-.99,1.72-1.46,1.75-1.43,3.56-2.78,5.43-4.06,3.54-2.42,7.19-3.23,9.87-3.79,1.59-.33,3.57-.51,4.85-.51.75,0,1.49-.04,2.23-.11.57-.06,1.29-.1,1.79-.42.18-.11.31-.29.34-.5,0-.2-.07-.4-.21-.55M253.84,300.14c-4.15-.3-7.59,3.11-7.59,3.11-1.89,1.75-2.94,4.23-2.88,6.8.02,1.52.26,2.73,1.49,1.38l.33-.33c2.02-2.03,4.17-3.91,6.44-5.65,3.2-2.45,5.76-5.05,2.21-5.31M208.68,398.53c-2.06,0-3.73,4.35-3.73,7.12,0,3,.81,7.11,2.87,7.11.78,0,1.11-2.26,1.38-7.14.27-4.95.11-7.09-.52-7.09M208.68,398.53c-2.06,0-3.73,4.35-3.73,7.12,0,3,.81,7.11,2.87,7.11.78,0,1.11-2.26,1.38-7.14.27-4.95.11-7.09-.52-7.09M253.84,300.14c-4.15-.3-7.59,3.11-7.59,3.11-1.89,1.75-2.94,4.23-2.88,6.8.02,1.52.26,2.73,1.49,1.38l.33-.33c2.02-2.03,4.17-3.91,6.44-5.65,3.2-2.45,5.76-5.05,2.21-5.31M316.31,278.56c-.32-.4-.8-.6-1.26-.77-.53-.2-1.04-.44-1.58-.62-1.7-.56-3.47-.85-5.26-.86-2.56,0-5.03.29-7.44,1.2-1.62.61-3.03,1.5-4.46,2.45-.89.58-1.73,1.21-2.53,1.9-1.44,1.19-2.69,2.59-3.7,4.16-.43.69-.8,1.41-1.09,2.18-.38.96-.6,1.98-.63,3.02,0,.14.04.31.17.35.1.03.21-.04.3-.11.53-.45.94-1.03,1.46-1.5.56-.51,1.13-.99,1.72-1.46,1.75-1.43,3.56-2.78,5.43-4.06,3.54-2.42,7.19-3.23,9.87-3.79,1.59-.33,3.57-.51,4.85-.51.75,0,1.49-.04,2.23-.11.57-.06,1.29-.1,1.79-.42.18-.11.31-.29.34-.5,0-.2-.07-.4-.21-.55M208.68,398.53c-2.06,0-3.73,4.35-3.73,7.12,0,3,.81,7.11,2.87,7.11.78,0,1.11-2.26,1.38-7.14.27-4.95.11-7.09-.52-7.09M253.84,300.14c-4.15-.3-7.59,3.11-7.59,3.11-1.89,1.75-2.94,4.23-2.88,6.8.02,1.52.26,2.73,1.49,1.38l.33-.33c2.02-2.03,4.17-3.91,6.44-5.65,3.2-2.45,5.76-5.05,2.21-5.31M316.31,278.56c-.32-.4-.8-.6-1.26-.77-.53-.2-1.04-.44-1.58-.62-1.7-.56-3.47-.85-5.26-.86-2.56,0-5.03.29-7.44,1.2-1.62.61-3.03,1.5-4.46,2.45-.89.58-1.73,1.21-2.53,1.9-1.44,1.19-2.69,2.59-3.7,4.16-.43.69-.8,1.41-1.09,2.18-.38.96-.6,1.98-.63,3.02,0,.14.04.31.17.35.1.03.21-.04.3-.11.53-.45.94-1.03,1.46-1.5.56-.51,1.13-.99,1.72-1.46,1.75-1.43,3.56-2.78,5.43-4.06,3.54-2.42,7.19-3.23,9.87-3.79,1.59-.33,3.57-.51,4.85-.51.75,0,1.49-.04,2.23-.11.57-.06,1.29-.1,1.79-.42.18-.11.31-.29.34-.5,0-.2-.07-.4-.21-.55M316.31,278.56c-.32-.4-.8-.6-1.26-.77-.53-.2-1.04-.44-1.58-.62-1.7-.56-3.47-.85-5.26-.86-2.56,0-5.03.29-7.44,1.2-1.62.61-3.03,1.5-4.46,2.45-.89.58-1.73,1.21-2.53,1.9-1.44,1.19-2.69,2.59-3.7,4.16-.43.69-.8,1.41-1.09,2.18-.38.96-.6,1.98-.63,3.02,0,.14.04.31.17.35.1.03.21-.04.3-.11.53-.45.94-1.03,1.46-1.5.56-.51,1.13-.99,1.72-1.46,1.75-1.43,3.56-2.78,5.43-4.06,3.54-2.42,7.19-3.23,9.87-3.79,1.59-.33,3.57-.51,4.85-.51.75,0,1.49-.04,2.23-.11.57-.06,1.29-.1,1.79-.42.18-.11.31-.29.34-.5,0-.2-.07-.4-.21-.55M253.84,300.14c-4.15-.3-7.59,3.11-7.59,3.11-1.89,1.75-2.94,4.23-2.88,6.8.02,1.52.26,2.73,1.49,1.38l.33-.33c2.02-2.03,4.17-3.91,6.44-5.65,3.2-2.45,5.76-5.05,2.21-5.31M208.68,398.53c-2.06,0-3.73,4.35-3.73,7.12,0,3,.81,7.11,2.87,7.11.78,0,1.11-2.26,1.38-7.14.27-4.95.11-7.09-.52-7.09M310.81,236.37c0,6.1-4.95,11.04-11.05,11.04s-11.04-4.95-11.04-11.04,4.95-11.04,11.05-11.04,11.04,4.95,11.04,11.04h0M299.77,229.91c-3.57-.14-6.57,2.64-6.71,6.2s2.64,6.57,6.2,6.71c.17,0,.34,0,.51,0,3.57-.14,6.34-3.14,6.2-6.71-.13-3.37-2.83-6.07-6.2-6.2M570.07,137.48c0,6.1-4.95,11.05-11.05,11.05s-11.04-4.95-11.04-11.05,4.95-11.05,11.04-11.05,11.05,4.95,11.05,11.05M559.04,131.02c-3.57-.14-6.57,2.64-6.71,6.2s2.64,6.57,6.2,6.71c.17,0,.34,0,.51,0,3.57-.14,6.34-3.14,6.2-6.71-.13-3.37-2.83-6.07-6.2-6.2M934.61,262.64c0,4.81-3.89,8.72-8.7,8.72-4.81,0-8.72-3.89-8.72-8.7v-.02c0-4.81,3.91-8.7,8.72-8.7,4.8,0,8.69,3.9,8.7,8.7M925.9,257.54c-2.82,0-5.1,2.28-5.1,5.1s2.28,5.1,5.1,5.1,5.1-2.28,5.1-5.1-2.28-5.1-5.1-5.1M933.65,295.6c0,8.12-6.59,14.71-14.71,14.71s-14.71-6.59-14.71-14.71h0c0-8.12,6.59-14.71,14.71-14.71s14.71,6.59,14.71,14.71M918.94,285.6c-5.51-.17-10.13,4.15-10.3,9.67-.17,5.51,4.15,10.13,9.67,10.3.21,0,.42,0,.63,0,5.51-.17,9.84-4.79,9.67-10.3-.17-5.27-4.4-9.5-9.67-9.67M269.89,247.91c.25,11-8.47,20.12-19.48,20.37-11,.25-20.12-8.47-20.37-19.48,0-.3,0-.6,0-.89.25-11,9.37-19.73,20.37-19.48,10.66.24,19.24,8.82,19.48,19.48M249.96,232.5c-8.51,0-15.41,6.9-15.41,15.41s6.9,15.41,15.41,15.41,15.41-6.9,15.41-15.41-6.9-15.41-15.41-15.41M238.08,248.83c.05.4.19.83.52,1.07.25.18.59.23.9.17s.63-.24.81-.51c.31-.44.33-1.15.47-1.66.16-.6.35-1.19.57-1.78.78-2.05,1.9-3.62,3.68-4.9,1.07-.77,2.22-1.44,3.42-1.99.67-.31,2.82-.7,3.05-1.49.08-.27-.04-.56-.21-.78-.45-.56-1.12-.91-1.84-.96-2.98-.36-6.19,1.34-8.18,3.44-2.4,2.5-3.57,5.94-3.19,9.39M765.97,135.95c-9.93.53-18.4-7.09-18.93-17.02s7.09-18.4,17.02-18.93,18.4,7.09,18.93,17.02-7.09,18.4-17.02,18.93h0M765.43,108.05c-.73,0-1.52.09-1.98.51-.15.14-.25.35-.18.55.04.1.1.19.19.26.87.86,2.08,1.08,3.17,1.52,2.3.91,4.08,2.88,5.36,4.95.31.51.59,1.03.82,1.58.19.44.37,1.12.91,1.24.69.16,1-.62,1.03-1.16.19-3.34-1.13-6.37-4.08-8.1-1.29-.78-2.75-1.23-4.26-1.3-.29-.03-.62-.04-.98-.05M778.09,117.34c-.28-7.23-6.38-12.86-13.61-12.57-7.23.28-12.86,6.38-12.57,13.61,0,.12.01.25.02.37.49,7.22,6.74,12.67,13.95,12.19,7.08-.48,12.49-6.5,12.21-13.59M617.46,158.23c-1.82-1.41-5.08-1.51-7.27-1.49-2.57.02-5.12.42-7.57,1.18-7.48,2.33-14.24,8.19-16.37,15.86-.4,1.43.39,1.21.86.7,3.32-3.69,7.17-6.86,11.43-9.41,5.76-3.39,11.78-4.86,18.33-5.71.42-.05.96-.27.9-.69-.03-.19-.16-.33-.31-.44M710.6,144.19c-1.92-.94-5.48-1.49-7.55-1.48-2.22-.02-4.43.25-6.58.79-6.69,1.68-13.39,8.3-15.46,14.66-.41,1.27.37,1.08.82.62,3.13-3.38,6.79-6.23,10.83-8.45,5.06-2.67,11.18-3.95,17.39-4.72.4-.04.96-.29.9-.66-.02-.16.17-.51-.35-.76M843.89,171.05c-.95-2.08-2.23-3.99-3.79-5.65-3.77-4.35-9.13-6.9-16.05-5.55-1.32.26-1.01,1.02-.4,1.24,4.84,1.77,10.01,4.72,12.63,7.37,3.85,3.9,5.53,7.62,7.14,11.7.15.37.4,1.47.75,1.63.54.26.82-2.89.86-3.95.06-2.14-.22-4.67-1.14-6.79M865.04,228.05c-.14-2.73-1.39-5.29-3.46-7.07-.8-.72-1.78-1.2-2.84-1.41-2.11-.25-2.22.2-1.25,2.48.96,2.27,2.31,5.04,3.51,7.96,1.1,2.68,2.4,7.73,3.56,4.54.62-1.7.61-4.45.48-6.5M617.46,158.23c-1.82-1.41-5.08-1.51-7.27-1.49-2.57.02-5.12.42-7.57,1.18-7.48,2.33-14.24,8.19-16.37,15.86-.4,1.43.39,1.21.86.7,3.32-3.69,7.17-6.86,11.43-9.41,5.76-3.39,11.78-4.86,18.33-5.71.42-.05.96-.27.9-.69-.03-.19-.16-.33-.31-.44M710.6,144.19c-1.92-.94-5.48-1.49-7.55-1.48-2.22-.02-4.43.25-6.58.79-6.69,1.68-13.39,8.3-15.46,14.66-.41,1.27.37,1.08.82.62,3.13-3.38,6.79-6.23,10.83-8.45,5.06-2.67,11.18-3.95,17.39-4.72.4-.04.96-.29.9-.66-.02-.16.17-.51-.35-.76M843.89,171.05c-.95-2.08-2.23-3.99-3.79-5.65-3.77-4.35-9.13-6.9-16.05-5.55-1.32.26-1.01,1.02-.4,1.24,4.84,1.77,10.01,4.72,12.63,7.37,3.85,3.9,5.53,7.62,7.14,11.7.15.37.4,1.47.75,1.63.54.26.82-2.89.86-3.95.06-2.14-.22-4.67-1.14-6.79M865.04,228.05c-.14-2.73-1.39-5.29-3.46-7.07-.8-.72-1.78-1.2-2.84-1.41-2.11-.25-2.22.2-1.25,2.48.96,2.27,2.31,5.04,3.51,7.96,1.1,2.68,2.4,7.73,3.56,4.54.62-1.7.61-4.45.48-6.5M617.46,158.23c-1.82-1.41-5.08-1.51-7.27-1.49-2.57.02-5.12.42-7.57,1.18-7.48,2.33-14.24,8.19-16.37,15.86-.4,1.43.39,1.21.86.7,3.32-3.69,7.17-6.86,11.43-9.41,5.76-3.39,11.78-4.86,18.33-5.71.42-.05.96-.27.9-.69-.03-.19-.16-.33-.31-.44M710.6,144.19c-1.92-.94-5.48-1.49-7.55-1.48-2.22-.02-4.43.25-6.58.79-6.69,1.68-13.39,8.3-15.46,14.66-.41,1.27.37,1.08.82.62,3.13-3.38,6.79-6.23,10.83-8.45,5.06-2.67,11.18-3.95,17.39-4.72.4-.04.96-.29.9-.66-.02-.16.17-.51-.35-.76M843.89,171.05c-.95-2.08-2.23-3.99-3.79-5.65-3.77-4.35-9.13-6.9-16.05-5.55-1.32.26-1.01,1.02-.4,1.24,4.84,1.77,10.01,4.72,12.63,7.37,3.85,3.9,5.53,7.62,7.14,11.7.15.37.4,1.47.75,1.63.54.26.82-2.89.86-3.95.06-2.14-.22-4.67-1.14-6.79M865.04,228.05c-.14-2.73-1.39-5.29-3.46-7.07-.8-.72-1.78-1.2-2.84-1.41-2.11-.25-2.22.2-1.25,2.48.96,2.27,2.31,5.04,3.51,7.96,1.1,2.68,2.4,7.73,3.56,4.54.62-1.7.61-4.45.48-6.5M1003.55,308.07c-2.22-2.87-5.4-4.85-8.96-5.58-1.44-.25-3.09-.56-4.52-.18-.18.04-.37.12-.43.3-.07.19.08.39.23.53.78.72,1.74.95,2.7,1.35,2.41,1,4.57,2.52,6.33,4.44,1.71,1.87,3.06,4.03,4,6.38,1.02,2.48,1.34,4.97,1.84,7.57.04.19.12.42.31.43.16.01.28-.15.36-.29.76-1.46,1-3.11,1.11-4.73.25-3.61-.79-7.32-2.97-10.22M1003.55,308.07c-2.22-2.87-5.4-4.85-8.96-5.58-1.44-.25-3.09-.56-4.52-.18-.18.04-.37.12-.43.3-.07.19.08.39.23.53.78.72,1.74.95,2.7,1.35,2.41,1,4.57,2.52,6.33,4.44,1.71,1.87,3.06,4.03,4,6.38,1.02,2.48,1.34,4.97,1.84,7.57.04.19.12.42.31.43.16.01.28-.15.36-.29.76-1.46,1-3.11,1.11-4.73.25-3.61-.79-7.32-2.97-10.22M1003.55,308.07c-2.22-2.87-5.4-4.85-8.96-5.58-1.44-.25-3.09-.56-4.52-.18-.18.04-.37.12-.43.3-.07.19.08.39.23.53.78.72,1.74.95,2.7,1.35,2.41,1,4.57,2.52,6.33,4.44,1.71,1.87,3.06,4.03,4,6.38,1.02,2.48,1.34,4.97,1.84,7.57.04.19.12.42.31.43.16.01.28-.15.36-.29.76-1.46,1-3.11,1.11-4.73.25-3.61-.79-7.32-2.97-10.22M1017.86,318.31s.62-15.15-13.57-23.71c-13.89-8.39-27.13-1.35-33.59,5.68-.2.2-.51.23-.75.08-.94-.71-3.52-2.1-3.77-2.21-1.61-.71-3.3-1.18-5.05-1.41-3.7-.45-7.55.26-10.82,2.08-4.02,2.35-6.99,6.15-8.3,10.62-.67,2.23-.9,4.58-.68,6.9.18,1.72.6,4.32,1.72,5.91.26.36.04.84-.38.92-3.37.65-6.4,1.77-8.6,3.58-9.39,7.76-10.93,19.01-11.4,22.73-.47,3.73.15,12.96-8.69,15.44-4.34-7.13-39.65-76.11-44.43-84.41l-3.24-6.18c-.75-1.44-1.57-2.85-2.44-4.22l-1.95-3.08c-.25-.41-.17-.95.19-1.27,7.27-6.19,18.14-14.87,18.14-33.29s-16.17-30.14-23.16-33.77c-.31-.16-.44-.55-.28-.86,0,0,0-.02.02-.03,4.7-8.8,5.44-22.17,1.52-30.76-4.01-8.79-13.78-23.33-32.65-23.33-16.6,0-25.23,8.29-27.15,10.38-.23.26-.62.26-.88.02-4.23-3.95-8.43-4.22-14.5-4.22s-11.76,3.39-17.29,9.78c-.42.5-1.11.66-1.71.42-4.14-1.75-7.72-2.28-15.83-1.65-.57.02-1.09-.35-1.27-.89-4.19-14.13-18.73-30.19-42.05-30.73-19.96-.46-32.6,14.49-32.6,14.49,0,0-7.48-6.5-18.66-6.5-9.7,0-17.59,7.76-19.51,9.81-.27.29-.7.36-1.05.19-2.77-1.34-14.82-6.47-30.09-3.05-19.36,4.33-29.68,18.79-32.95,24.72-.18.32-.59.44-.91.26-.02,0-.03-.02-.05-.03-4.72-3.05-17.65-4.16-27.71,2.27-10.52,6.73-11.95,20.78-11.95,20.78-17.43.94-61.85,4.12-96.53,8.25s-41.42,9.18-54.73,18.75-24.56,27.55-24.56,27.55l-17.43,27.18s-12.36-12.74-32.43-9.94c-15.85,2.21-25.88,12.44-32.42,26.8-6-3-19.68-4.12-29.24,1.13-12.93,7.73-16.47,18.92-17.21,26.8l.34,9.37s-13.5,1.31-23.62,10.12c-4.22,3.67-5.7,8.28-6,12.42-.26,3.63.41,7.25,1.86,10.57-.51.05-1.08.15-1.71.3-1.8.48-3.49,1.32-4.97,2.47-4.79,3.61-7.9,9.02-8.61,14.97-.82,6.6,1.8,15.51,11.12,21.28.25.15.37.45.31.73-3.54,15.58,3.71,25.63,13.23,30.36,1.52.75,3.19,1.21,4.88,1.36-15.75,23.05-17.99,70.49-17.99,70.49.91-.91,8.41,0,14.24,0,3.87-77.38,34.82-82.43,57.75-94.34,18.41-9.65,23.77-17.85,29.43-27,2.67-4.53,5.07-9.22,7.17-14.04,5.96-12.52,32.69-67.86,55.42-102.74,24.75-38,42.59-45.88,60.84-49.62,53.79-9.35,147.5-10.92,177.34-11.18h.34c7.08,0,123.79.29,186.41,11.18,18.26,3.74,36.1,11.62,60.85,49.62,22.72,34.88,49.45,90.22,55.41,102.74.55,1.15,1.07,2.3,1.58,3.46.59,1.35,2.08,4.42,5.59,10.58,5.67,9.15,11.02,17.35,29.43,27,22.93,11.9,53.89,16.95,57.75,94.34,5.84,0,10.95.08,13.39.08-.39-10.33-2.75-45.13-17.23-69.94l-.75-1.05c-.44-.63-.34-1.49.24-1.99,3.46-2.95,8.99-7,10.49-15.78,1.66-9.7-2.25-15.62-2.25-15.62,0,0,13.37-4.97,13.37-17.39s-7.95-17.89-7.95-17.89c2.27-3.92,3.34-8.43,3.06-12.95-.14-2.31-.71-4.58-1.67-6.69.01.01,13.78-6.92,13.78-23.2M271.25,386.59c-2.2,1.62-11.15,8.12-16.13,10.25-6.64,2.79-13.11,5.99-19.36,9.57-5.29,2.99-11.91,9.43-15.96,13.65-1.24,1.3-2.42,2.65-3.54,4.06h0c-8.96-1.51-14.9-9.07-15.64-15.88-1.46-12.3,10.06-19.81,10.57-20.17s3.38-1.96.59-1.74c-2.78.23-9.62,3.6-10.4,4.2-.77.59-1.8.84-3.65,0-3.91-2.26-7.62-5.31-7.35-12.75,0-1.79,1.82-6.42,4.67-9.11,1.85-1.68,4.16-2.76,6.64-3.08.42.55.88,1.07,1.36,1.57.92.95,1.87,1.84,2.86,2.67,5.99,5.03,13.19,8.39,20.89,9.76,11.65,2.03,23.35,3.76,35.09,5.19,5.32.62,8.12,1.11,9.25,1.32.25.04.32.34.12.49M231.26,366.71c-5.15-.83-16.49-3.02-21.3-13-.48-.96-.79-2.01-.9-3.08-.48-5.49,4.19-8.45,16.66-11.13,10.47-2.26,25.73-4.22,30.35-3.01,3.06.81,7.39,3.35,8.96,10.77,1.14,5.35.86,5.98,1.22,9.7.35,3.73,1.84,9.6,8.15,15.94.01,0-37.77-5.34-43.14-6.19M331.49,279.8c-4.77,8.31-39.67,77.98-44.01,85.12-8.85-2.48-8.22-11.71-8.69-15.44s-2.01-14.98-11.4-22.73-34.14-2.79-34.14-2.79c0,0-4.17-18.17,12.93-27.46,8.74-4.09,22.5-5.57,33.28,6.69,3.19,3.55,5.03,7.27,5.51,10.35.02.12.19.14.23.01.99-2.91-.52-9.98-7.24-17.06,2.78-10.96,8.44-22.94,25.88-26.77,16.13-3.53,28.76,8.15,28.76,8.15l-1.11,1.93ZM856.55,258.05l-8.8-13.72s-11.24-17.99-24.55-27.55-20.06-14.63-54.74-18.75c-34.67-4.12-79.1-7.31-96.53-8.25-2.84,0-39.56-1.6-66.51-2.05l-4.7-.07-4.71.07c-20.13.34-45.71,1.32-58.55,1.79,0,0,1.31-11.19,11.97-15.69,11.34-4.79,19.2,1.25,23.36,4.86.37.33.95.15,1.09-.34,3.23-11.15,10.39-18.68,18.67-24.19,8.53-5.69,22.51-7.23,32.58-4.39s18.6,8.65,21.8,12.44,3.91,4.03,3.19,2.13c-1.24-2.72-5.38-8.69-9.87-13.26-.36-.36-.4-.92-.1-1.33,2.58-3.4,8.44-7.1,13.65-7.1s10.47,2.18,14.84,6.22c.32.3.42.77.26,1.18-.98,2.34-3.15,9.41-3.01,14.99.11,4.39,1.56,5.62,1.56,1.76.35-6.75,6.48-16.08,9.34-18.93,11.85-12.56,26.42-16.05,41.61-10.47,15.07,5.55,19.75,18.25,21.35,23.76.15.56.25,1.5-.45,2-8.61,6.14-11.39,12.46-12.44,17.34-.7,3.28.06,3.89.86,1.35,1.46-3.67,9.95-16.16,24.8-16.16s22.62,11.34,24.49,14.19c1.87,2.86,2.26,2.54,1.83.18-.92-4.33-3.76-9.11-7.04-12.92-.44-.49-.51-1.2-.18-1.76,1.81-3.21,6.64-7.62,12.33-7.62,6.09,0,9.78,2.56,14.27,7.77.26.3.73.29.97-.03,8.54-11.26,21.24-17.33,35.74-11.65,14.76,5.78,18.24,21.08,18.24,25s-1.79,13.61-5.27,18.84c-.31.45-.81.74-1.35.78-10.36.7-15.16,3.27-17.54,4.56-2.45,1.32-2.8,2.09-.23,1.35s7.54-1.33,12.43-1.33c11.5,0,22.67,8.03,25.71,12.9s5.75,8.57,4.88,21.7c-.73,11.07-10.66,18.6-13.75,20.69-.51.34-1.18.2-1.5-.29M935.19,356.97c.36-3.73.1-4.35,1.23-9.7,1.57-7.42,5.9-9.97,8.96-10.77,4.62-1.21,19.87.75,30.35,3.01,12.46,2.68,17.14,5.64,16.66,11.13-.12,1.07-.42,2.12-.91,3.08-4.8,9.98-16.15,12.17-21.3,13-14.38,2.11-28.76,4.18-43.15,6.2,6.32-6.35,7.8-12.23,8.16-15.95M1004.02,377.15c0,9.18-8.61,13.56-12.23,13.56s-7.81-1.58-10.36-1.79c7.55,4.23,11.78,10.19,11.78,19.07,0,7.35-6.05,12.89-8.13,14.58-.38.3-.93.25-1.24-.12-.71-.82-1.44-1.62-2.19-2.4-4.05-4.23-10.66-10.66-15.96-13.65-6.25-3.59-12.72-6.78-19.36-9.57-4.99-2.12-13.93-8.63-16.13-10.25-.19-.15-.13-.45.11-.5,1.13-.21,3.93-.7,9.26-1.32,5.5-.64,23.58-3.08,35.09-5.19,7.7-1.37,14.9-4.73,20.89-9.76,1.18-1,2.29-2.07,3.34-3.2,2.08,1.42,5.13,4.5,5.13,10.54M1001.57,335.66c-.84.32-1.79.15-2.48-.43-8.5-7.05-18.99-9.2-22.01-9.69-.89-.15-1.79-.3-2.68-.45l-6.2-1.13s-8.24-1.66-17.01-1.56c-1.9.02-3.01-4.61-3.22-5.75-.81-4.53.74-9.24,4.63-11.91,3.1-2.13,8-2.8,11.37-.85,2.86,1.66,4.95,4.72,6.32,7.72.12.27.51.27.64.01.47-.96,1.42-2.31,1.63-2.67.8-1.34,1.7-2.62,2.7-3.83,2.06-2.57,4.65-4.66,7.59-6.14,6.52-3.06,14.19-2.38,20.07,1.79,5.4,3.94,8.59,10.23,8.58,16.92.01,10.26-6.4,16.64-9.93,17.97" style="fill: #d4af37;"/>
  <path d="M511.54,289.95c.09.02.09.15,0,.17l-14.09,2.45c-2.07.42-8.55,1.97-10.57,2.54-5.1,1.45-9.25,4.04-11.76,8.34-1.1,1.9-2.69,5.83-3.77,9.48-.41,1.4-.72,2.82-.95,4.27l-2.7,17.23c-.05.3-.49.3-.54-.01l-3.25-20.35c-.28-1.44-.69-2.85-1.22-4.21-.92-2.45-2.15-4.77-3.65-6.91-2.43-3.36-4.77-5.02-9.45-7.05-1.93-.84-5.21-1.78-11.41-2.97l-15.36-2.95c-.16-.03-.15-.26.01-.28l13.57-1.75c2.07-.42,7.78-1.78,9.8-2.35,5.1-1.45,10.99-4.17,13.5-8.47.91-1.57.96-1.39,1.54-3.02.42-1.18.92-2.35,1.52-4.04.24-.68.8-1.72,1.24-4.44.63-2.57,2.87-16.79,3.15-19.04.27-.84.48-.29.52,0,.84,7.14,2.49,17.87,3.87,22.56.18.72.66,1.77.96,2.62.8,2.27,1.56,3.45,2.63,5.36,2.01,3.6,6.38,6.21,10.62,7.81.95.36,4.05,1.4,5.54,1.83,2.36.69,6.7,1.28,8.48,1.53,1.78.26,11.77,1.65,11.77,1.65M527.14,257.33v.07l-5.99,1.06c-.88.18-3.63.85-4.49,1.1-2.17.63-4.16,1.65-5.23,3.51-.98,1.94-1.69,4-2.09,6.14l-1.34,7.34c-.02.13-.21.13-.23,0l-.66-4.59c-.2-2.02-.61-4.02-1.2-5.97v-.02c-.48-1.19-1.07-2.32-1.77-3.38-1.03-1.45-1.34-1.8-3.33-2.67-.82-.36-2.22-.77-4.85-1.28l-6.53-1.27c-.07-.01-.06-.11,0-.12l5.77-.75c.88-.18,3.31-.77,4.17-1.01,2.17-.63,4.67-1.8,5.74-3.65.39-.68.41-.6.65-1.3.18-.51.39-1.01.65-1.74.1-.29.34-.74.53-1.91.51-2.73.96-5.46,1.34-8.21.12-.36.21-.13.22,0,.36,3.08,1.06,7.7,1.65,9.73.08.31.28.76.41,1.13.34.98.66,1.49,1.12,2.31.85,1.55,2.71,2.68,4.51,3.37.4.15,1.72.6,2.35.79,1,.3,2.85.55,3.61.66l4.99.66ZM303.02,607.06s-21.56-23.14-67.16-23.14c-22.87,0-50.27,5.01-65.03,24.32-12.69,16.6-14.49,42.65-1.52,59.56,6.05,7.88,15.01,16.17,23.25,19.68,8.24,3.52,26.51,8.49,45.46,8.49,8.94,0,15.46-.77,23.86-2.19,0,0,13.57-2.37,20.55-6.63v-53.54h54.12v81.62c-4.33,5.54-28.1,14.86-28.1,14.86-10.81,3.79-21.91,6.67-33.2,8.6-10.02,1.65-26.13,3.49-38.05,3.49-36.64,0-78.98-8.39-103.47-29.54-18.82-16.26-33.55-38.54-33.55-72.77,0-39.31,23.56-70.8,58.53-87.01,7.44-3.43,15.16-6.2,23.09-8.26,21.34-5.58,43.58-6.53,65.53-5.65,19.94.81,39.64,4.36,58.09,12.29,9.19,3.93,17.87,8.96,25.84,14.98,3.27,2.48,6.68,5.2,9.01,8.63l-34.24,30.06M494.85,741.98c-23.85.18-47.92-2.75-69.91-11.89-16.97-7.06-32.6-18.06-44.03-32.58-12.44-15.8-17.98-35.23-18.31-55.23l-.02-2.05c0-19.2,5.59-39.01,16.64-54.78,11.14-15.91,28.71-27.4,46.32-34.93,6.65-2.83,13.51-5.16,20.51-6.97,22.93-5.94,46.99-6.55,70.54-4.13,39.27,4.04,77,18.69,97.63,54.42,6.08,10.41,10.12,21.89,11.91,33.81,5.89,40.44-15.67,79.17-51.32,97.81-2.6,1.36-5.25,2.61-7.94,3.76-20.65,8.8-43.29,11.97-65.72,12.63-2.09.07-4.19.11-6.3.13M494.86,696.05c16.53.1,33.34-3.14,47.13-12.16,13.63-8.91,22.59-24.53,23.76-40.91,1.34-18.83-8.38-35.83-23.79-46.26-12.75-8.64-28.3-12.43-43.68-12.88-14.37-.43-28.93,1.98-42,7.99-26.77,12.31-40.83,41.61-28.8,69.76,7.59,17.77,24.25,27.49,42.43,31.69,6.6,1.49,13.33,2.37,20.09,2.64,1.62.08,3.24.12,4.86.13M655.24,737.98v-196.22h59.26v149.62h124.14v46.61h-183.4ZM862.22,737.98v-196.22h116.77c24.91,0,46.41,3.8,64.51,11.41,18.1,7.61,32.01,18.73,41.74,33.37s14.59,32.42,14.6,53.33c0,20.91-4.86,38.69-14.6,53.33s-23.65,25.76-41.74,33.37c-18.1,7.61-39.6,11.41-64.51,11.41h-116.77ZM922.28,691.73h51.68c27.76,0,58.44-10.14,64.48-41.19,4.29-22.08-3.43-43.09-25.04-53.94-16.1-8.09-33.56-8.58-51.08-8.58h-40.04v103.71ZM121.67,978.68v-196.22h53.35c20.24,0,40.48.12,60.71,0,16.23-.09,33.4,1.69,49.07,6.07,15.55,4.35,30.53,12.43,40.34,25.25,10.29,13.45,14.03,31.26,11.99,48.07-2.93,24.22-20.44,40.23-41.44,50.69l48.94,66.14h-67.73l-40.13-56.56h-55.78v56.56h-59.32ZM180.99,877.44h58.34c6.69,0,13.8-.75,20.2-2.74,5.49-1.7,10.73-4.74,14.05-9.43,5.22-7.38,4.61-18.04-.56-25.46-6.31-9.06-18.13-12.73-28.73-12.73h-63.31v50.36ZM477.73,983.36c-24.94,0-45.1-4.86-61.9-11.27-17.41-6.64-29.79-19.8-37.87-34.34s-10.86-32.37-10.86-53.48v-101.81h60.04v98.68c0,16.35,1.58,31.06,11.75,41.27,8.56,8.59,24.43,13.15,38.84,13.15s33.14-5.07,41.13-14.2,9.82-23.87,9.82-40.22v-98.68h59.94v101.82c0,21.11-2.87,38.85-10.79,53.48-11.18,20.64-21.65,26.83-38.07,34.34-16.41,7.51-37.09,11.26-62.03,11.26M688.4,899.05l-10.23-1.82c1.55.32,3.14.61,4.77.88,1.78.29,3.6.6,5.46.94" style="fill: #d4af37;"/>
  <path d="M625.61,813.25c3.64-5.19,8.1-9.76,13.2-13.53,12.97-9.63,29.27-15.07,44.93-18.43,37.89-8.13,77-4.34,113.06,8.76,3.97,1.44,17.75,7.99,17.75,7.99l-19.99,42.06c.82-1.72-20.55-9.46-22.35-10.04-26.15-8.5-59.16-12.53-85.51-2.53-4.17,1.58-10.04,5.5-10.04,10.55v.4h.12c0,7.78,9.2,10.97,15.3,12.86,10.39,3.22,21.32,5.14,32.12,6.38l-8.22-1.24c24.78,3.32,49.74,6.71,73.28,15.53,9.86,4.13,18.99,10.08,25.08,19.03,6.34,9.33,10.49,19.78,9.89,31.26-.17,3.19-.7,6.35-1.6,9.41-5.53,18.65-22.11,33.62-39.68,40.99-36.27,15.22-81.44,14.39-119.31,5.46-9.75-2.33-19.34-5.25-28.73-8.76-1.85-.69-24.09-11.17-23.87-11.39l21.79-41.72c4.21,4.05,29.88,13.31,37.73,15.4,14.88,3.96,30.16,6.79,45.6,6.98,12.9.16,33.2.22,43.18-9.29,1.41-1.23,2.44-2.82,2.99-4.61.67-2.54-.17-5.29-1.68-7.44-2.54-3.61-6.53-6.07-10.67-7.41-11.23-3.65-23.61-4.57-35.23-6.49-21.39-3.54-44.73-4.99-64.67-14.16-14.19-6.52-33.21-21.56-33.21-39.15-2.33-13.27,1.31-26.25,8.74-36.87" style="fill: #d4af37;"/>
  <path d="M762.61,922.66h-.11v-.05l.11.05ZM849.84,978.68v-196.22h59.71v71.79h108.95v-71.79h59.84v196.22h-59.84v-77.03h-108.95v77.03h-59.71ZM121.67,1099.71v-79.1h33.16c10.84,0,22.66,1.2,31.39,8.17,8.16,6.56,13.37,16.1,14.49,26.51,1.61,16.16-7.45,34.06-22.83,40.28-6.85,2.77-13.2,4.15-23.05,4.15h-33.16ZM132.27,1090.88c13.44,0,29.14,2.36,41.62-3.65,4.3-2.08,8.05-5.13,10.95-8.93,6.77-8.87,8.04-21.58,3.28-31.67-6.31-13.36-19.82-18.17-33.7-18.17h-22.15v62.42ZM259.04,1099.71v-79.1h58.55v7.84h-49.44v26.75h44.36v7.96h-44.36v28.71h51.12v7.84h-60.23ZM395.75,1099.71v-71.15h-29.54v-7.96h68.93v7.96h-29.79v71.15h-9.6ZM471.08,1099.71l38.25-79.1h10.32l39.62,79.1h-11.12l-9.72-20.87h-47.09l-9.93,20.87h-10.33ZM494.65,1071h40.14l-20.11-41.55-20.03,41.55ZM687.03,1099.71v-79.1h9.99v70.15h46.42v8.95h-56.41ZM797.7,1099.71v-79.1h10.08v79.1h-10.08ZM611.65,1099.71v-79.1h10.08v79.1h-10.08ZM872.89,1099.71v-79.1h9.85l44.9,54.66c.51.54,1.13,1.27,1.85,2.19s1.45,1.86,2.18,2.83c.72.96,1.34,1.82,1.85,2.59h.64v-62.27h9.85v79.1h-8.83l-45.8-55.81-2.81-3.63c-1.09-1.42-2.2-2.82-3.33-4.21h-.51v63.65h-9.84ZM1071.55,1037.35c-8.33-9.37-24.99-12-36.4-8.02-3.95,1.46-7.62,3.57-10.88,6.23-2.74,2.14-5.31,4.54-7.21,7.45-9.28,14.2-3.43,34.42,10.18,43.65,4.89,3.32,12.01,4.89,17.8,4.99,4.53.08,11.7-.39,18.07-2.41,3.3-1.05,4.91-3.67,4.91-3.67l.15-19.29v-6.62h9.58v31.1c0,.57-4.16,2.93-4.8,3.37-8.8,5.97-21,6.41-31.22,5.55-9.64-.81-19.07-3.33-26.32-10.03-6.59-6.21-10.9-14.45-12.23-23.4-1.15-7.17-.34-14.52,2.34-21.27,1.19-2.93,2.72-5.71,4.55-8.29,4.68-6.51,11.16-11.5,18.65-14.36,9.1-3.44,19.2-3.5,28.79-1.87,8.29,1.41,14.68,4.89,20.82,10.57" style="fill: #d4af37;"/>
</svg>