<svg xmlns="http://www.w3.org/2000/svg" viewBox="0 0 2294.09 347.73"><path fill="#d4af37" d="m360.01 75.38 4.04.06v-.1c-1.29.01-2.65.03-4.04.04M159.87 321.74s-70.24-19.5-78.41-21.37c-8.16-1.87-17.26-3.88-28.9 5.89s-10.3 38.4-10.3 38.4c0-.54 4.55 0 11.65 0 0-18.2.4-23.42 7.09-30.24 6.69-6.83 18.33-2.54 18.33-2.54l86.3 23.42s15.78 2.67 24.08 12.44c-5.89-20.75-29.84-26-29.84-26m507.58-15.49c-11.64-9.77-20.74-7.76-28.9-5.89s-78.41 21.37-78.41 21.37-23.95 5.25-29.84 25.99c8.3-9.77 24.09-12.44 24.09-12.44l86.3-23.42s11.65-4.28 18.34 2.54 7.09 12.04 7.09 30.24c7.09 0 11.64-.54 11.64 0 0 .02 1.33-28.62-10.31-38.39M355.96 75.35v.1c1.38-.03 2.73-.04 4.05-.06-1.4-.02-2.75-.04-4.05-.04M603 231.1c-8.95-18.66-41.44-81.98-55.93-99.29-1.9-2.27-7-10-19.27-16.46-9.82-5.17-23.92-5.47-25.26-5.68-36.55-4.52-109.95-8.09-141.44-8.09h-2.34c-31.47 0-104.88 3.57-141.44 8.09-1.35.21-15.44.51-25.26 5.68-12.27 6.46-17.37 14.19-19.26 16.46-14.49 17.3-46.98 80.63-55.94 99.29-6.26 11.61-2.07 17.45 7.68 26.58 10.2 9.54 34.72 19.92 45.27 24.99 15.72 7.56 41.12 27.05 52.52 49.02-.25-.88-8.41-29.21-32.63-48.57-14.1-11.26-18.15-12.61-25.95-16.21-7.68-3.55-25.52-11.58-34.53-20.41-.18-.18-.07-.49.19-.52 19.79-2.11 94.82-5.69 131.44-6.73 30.73-.87 77.89-1.11 93.04-1.16l1.49-.01 5.72-.01s60.89.13 97.91 1.18c36.61 1.04 111.65 4.62 131.44 6.73.25.03.37.34.18.52-9.01 8.83-26.85 16.87-34.52 20.41-7.81 3.6-11.86 4.95-25.96 16.21-24.22 19.36-32.38 47.69-32.63 48.57 11.41-21.97 36.81-41.46 52.52-49.02 10.56-5.08 35.08-15.46 45.27-24.99 9.77-9.13 13.96-14.97 7.69-26.58m-5.95 3.53c-67.04-6.13-235.95-8.49-235.95-8.49l-2.34.03v-.03s-1.88.03-5.32.08l-.88.01c-31.02.49-170.36 2.96-229.75 8.4a.524.524 0 0 1-.53-.71c7.99-20.89 22.11-43.99 22.11-43.99s22.44-46.01 36.62-58.57c2.42-2.15 6.23-6.82 11.31-9.42 7.24-3.72 13.78-5.61 24.8-6.61 13.66-1.23 75.71-7.6 141.64-7.6h2.34c65.93 0 127.98 6.37 141.64 7.6 11.02 1 17.57 2.89 24.8 6.61 5.08 2.61 8.89 7.27 11.31 9.42 14.18 12.56 36.61 58.57 36.61 58.57s14.12 23.1 22.11 43.99c.15.37-.14.74-.52.71m-243.61-8.41 5.32-.06v-.03c0 .01-1.88.04-5.32.09m0 0 5.32-.06v-.03c0 .01-1.88.04-5.32.09M115.4 153.57c-.28-.34-.69-.52-1.08-.66-.45-.17-.89-.38-1.36-.53-.49-.16-.98-.3-1.48-.4-1-.22-2.02-.33-3.04-.33-2.2 0-4.33.25-6.4 1.03-1.39.52-2.61 1.29-3.84 2.11-.76.5-1.49 1.04-2.18 1.63-1.22 1.03-2.33 2.22-3.18 3.58-.37.59-.69 1.22-.94 1.87-.3.81-.55 1.73-.54 2.6 0 .12.03.26.14.3.09.03.18-.03.26-.09.46-.38.81-.88 1.25-1.29.48-.43.98-.85 1.48-1.26 1.51-1.23 3.07-2.39 4.67-3.49 3.05-2.08 6.19-2.78 8.49-3.26 1.37-.28 3.07-.43 4.17-.43q.96 0 1.92-.09c.49-.05 1.11-.08 1.54-.36.15-.09.28-.25.3-.43.01-.2-.07-.37-.18-.5m-53.73 18.56c-3.57-.26-6.53 2.67-6.53 2.67-1.61 1.48-2.51 3.55-2.48 5.85.02 1.31.22 2.35 1.28 1.19l.28-.28a56 56 0 0 1 5.54-4.86c2.76-2.11 4.96-4.35 1.91-4.57m-38.84 84.62c-1.77 0-3.21 3.74-3.21 6.12 0 2.58.7 6.12 2.47 6.12.67 0 .96-1.94 1.19-6.14.23-4.26.1-6.1-.45-6.1m92.57-103.18c-.28-.34-.69-.52-1.08-.66-.45-.17-.89-.38-1.36-.53-.49-.16-.98-.3-1.48-.4-1-.22-2.02-.33-3.04-.33-2.2 0-4.33.25-6.4 1.03-1.39.52-2.61 1.29-3.84 2.11-.76.5-1.49 1.04-2.18 1.63-1.22 1.03-2.33 2.22-3.18 3.58-.37.59-.69 1.22-.94 1.87-.3.81-.55 1.73-.54 2.6 0 .12.03.26.14.3.09.03.18-.03.26-.09.46-.38.81-.88 1.25-1.29.48-.43.98-.85 1.48-1.26 1.51-1.23 3.07-2.39 4.67-3.49 3.05-2.08 6.19-2.78 8.49-3.26 1.37-.28 3.07-.43 4.17-.43q.96 0 1.92-.09c.49-.05 1.11-.08 1.54-.36.15-.09.28-.25.3-.43.01-.2-.07-.37-.18-.5m-53.73 18.56c-3.57-.26-6.53 2.67-6.53 2.67-1.61 1.48-2.51 3.55-2.48 5.85.02 1.31.22 2.35 1.28 1.19l.28-.28a56 56 0 0 1 5.54-4.86c2.76-2.11 4.96-4.35 1.91-4.57m-38.84 84.62c-1.77 0-3.21 3.74-3.21 6.12 0 2.58.7 6.12 2.47 6.12.67 0 .96-1.94 1.19-6.14.23-4.26.1-6.1-.45-6.1m0 0c-1.77 0-3.21 3.74-3.21 6.12 0 2.58.7 6.12 2.47 6.12.67 0 .96-1.94 1.19-6.14.23-4.26.1-6.1-.45-6.1m38.84-84.62c-3.57-.26-6.53 2.67-6.53 2.67-1.61 1.48-2.51 3.55-2.48 5.85.02 1.31.22 2.35 1.28 1.19l.28-.28a56 56 0 0 1 5.54-4.86c2.76-2.11 4.96-4.35 1.91-4.57m53.73-18.56c-.28-.34-.69-.52-1.08-.66-.45-.17-.89-.38-1.36-.53-.49-.16-.98-.3-1.48-.4-1-.22-2.02-.33-3.04-.33-2.2 0-4.33.25-6.4 1.03-1.39.52-2.61 1.29-3.84 2.11-.76.5-1.49 1.04-2.18 1.63-1.22 1.03-2.33 2.22-3.18 3.58-.37.59-.69 1.22-.94 1.87-.3.81-.55 1.73-.54 2.6 0 .12.03.26.14.3.09.03.18-.03.26-.09.46-.38.81-.88 1.25-1.29.48-.43.98-.85 1.48-1.26 1.51-1.23 3.07-2.39 4.67-3.49 3.05-2.08 6.19-2.78 8.49-3.26 1.37-.28 3.07-.43 4.17-.43q.96 0 1.92-.09c.49-.05 1.11-.08 1.54-.36.15-.09.28-.25.3-.43.01-.2-.07-.37-.18-.5M22.83 256.75c-1.77 0-3.21 3.74-3.21 6.12 0 2.58.7 6.12 2.47 6.12.67 0 .96-1.94 1.19-6.14.23-4.26.1-6.1-.45-6.1m38.84-84.62c-3.57-.26-6.53 2.67-6.53 2.67-1.61 1.48-2.51 3.55-2.48 5.85.02 1.31.22 2.35 1.28 1.19l.28-.28a56 56 0 0 1 5.54-4.86c2.76-2.11 4.96-4.35 1.91-4.57m53.73-18.56c-.28-.34-.69-.52-1.08-.66-.45-.17-.89-.38-1.36-.53-.49-.16-.98-.3-1.48-.4-1-.22-2.02-.33-3.04-.33-2.2 0-4.33.25-6.4 1.03-1.39.52-2.61 1.29-3.84 2.11-.76.5-1.49 1.04-2.18 1.63-1.22 1.03-2.33 2.22-3.18 3.58-.37.59-.69 1.22-.94 1.87-.3.81-.55 1.73-.54 2.6 0 .12.03.26.14.3.09.03.18-.03.26-.09.46-.38.81-.88 1.25-1.29.48-.43.98-.85 1.48-1.26 1.51-1.23 3.07-2.39 4.67-3.49 3.05-2.08 6.19-2.78 8.49-3.26 1.37-.28 3.07-.43 4.17-.43q.96 0 1.92-.09c.49-.05 1.11-.08 1.54-.36.15-.09.28-.25.3-.43.01-.2-.07-.37-.18-.5m0 0c-.28-.34-.69-.52-1.08-.66-.45-.17-.89-.38-1.36-.53-.49-.16-.98-.3-1.48-.4-1-.22-2.02-.33-3.04-.33-2.2 0-4.33.25-6.4 1.03-1.39.52-2.61 1.29-3.84 2.11-.76.5-1.49 1.04-2.18 1.63-1.22 1.03-2.33 2.22-3.18 3.58-.37.59-.69 1.22-.94 1.87-.3.81-.55 1.73-.54 2.6 0 .12.03.26.14.3.09.03.18-.03.26-.09.46-.38.81-.88 1.25-1.29.48-.43.98-.85 1.48-1.26 1.51-1.23 3.07-2.39 4.67-3.49 3.05-2.08 6.19-2.78 8.49-3.26 1.37-.28 3.07-.43 4.17-.43q.96 0 1.92-.09c.49-.05 1.11-.08 1.54-.36.15-.09.28-.25.3-.43.01-.2-.07-.37-.18-.5m-53.73 18.56c-3.57-.26-6.53 2.67-6.53 2.67-1.61 1.48-2.51 3.55-2.48 5.85.02 1.31.22 2.35 1.28 1.19l.28-.28a56 56 0 0 1 5.54-4.86c2.76-2.11 4.96-4.35 1.91-4.57m-38.84 84.62c-1.77 0-3.21 3.74-3.21 6.12 0 2.58.7 6.12 2.47 6.12.67 0 .96-1.94 1.19-6.14.23-4.26.1-6.1-.45-6.1m87.83-139.47c0 5.24-4.25 9.49-9.49 9.49s-9.49-4.25-9.49-9.49 4.25-9.49 9.49-9.49c5.25 0 9.49 4.25 9.49 9.49m-9.49-5.55a5.55 5.55 0 0 0 0 11.1c3.06 0 5.55-2.49 5.55-5.55.01-3.06-2.48-5.55-5.55-5.55m232.47-79.5c0 5.24-4.25 9.49-9.49 9.49s-9.49-4.25-9.49-9.49 4.25-9.49 9.49-9.49 9.49 4.25 9.49 9.49m-9.49-5.55a5.55 5.55 0 0 0 0 11.1c3.06 0 5.55-2.49 5.55-5.55.01-3.06-2.48-5.55-5.55-5.55m323.01 113.19c0 4.14-3.35 7.49-7.49 7.49s-7.49-3.35-7.49-7.49 3.35-7.49 7.49-7.49 7.49 3.36 7.49 7.49m-7.49-4.38c-2.42 0-4.38 1.96-4.38 4.38s1.96 4.38 4.38 4.38 4.38-1.96 4.38-4.38-1.96-4.38-4.38-4.38m6.67 32.73c0 6.99-5.66 12.65-12.65 12.65s-12.65-5.66-12.65-12.65 5.66-12.65 12.65-12.65 12.65 5.66 12.65 12.65m-12.65-8.6c-4.75 0-8.6 3.85-8.6 8.6s3.85 8.6 8.6 8.6a8.6 8.6 0 1 0 0-17.2M75.47 127.21c0 9.47-7.67 17.14-17.14 17.14s-17.14-7.67-17.14-17.14 7.67-17.14 17.14-17.14 17.14 7.67 17.14 17.14m-17.14-13.25c-7.32 0-13.25 5.93-13.25 13.25s5.93 13.25 13.25 13.25 13.25-5.93 13.25-13.25-5.93-13.25-13.25-13.25M48.12 128c.04.35.16.71.45.92a1 1 0 0 0 .77.15c.28-.05.54-.21.7-.44.26-.38.28-.99.4-1.43.14-.52.3-1.03.49-1.53.67-1.77 1.64-3.11 3.16-4.21.92-.67 1.91-1.24 2.94-1.71.58-.27 2.43-.6 2.62-1.29.07-.23-.04-.48-.18-.67-.36-.49-.98-.76-1.58-.83-2.57-.31-5.32 1.15-7.04 2.96-1.98 2.09-3.09 5.07-2.73 8.08m454-97.08c-8.53.46-15.82-6.09-16.28-14.62S491.93.48 500.46.02s15.82 6.09 16.28 14.62-6.09 15.82-14.62 16.28m-.46-24c-.63 0-1.3.07-1.71.44-.13.12-.21.3-.16.47.03.09.09.16.16.22.75.74 1.79.93 2.73 1.3 1.98.78 3.51 2.48 4.61 4.26.27.43.51.89.71 1.36.16.38.32.96.78 1.07.6.14.86-.53.88-.99.17-2.87-.97-5.48-3.51-6.97-.3-.18-.62-.34-.94-.48-.86-.37-1.79-.59-2.73-.65-.23 0-.52-.02-.82-.03m10.89 7.99c-.33-6.22-5.64-10.98-11.86-10.65s-10.98 5.64-10.65 11.86 5.64 10.98 11.86 10.65c6.21-.33 10.98-5.64 10.65-11.86M374.4 50.08c-1.57-1.21-4.37-1.3-6.25-1.28-2.2.01-4.42.37-6.51 1.01-6.44 2-12.24 7.04-14.08 13.64-.35 1.23.33 1.04.74.6 2.94-3.24 6.22-5.97 9.83-8.09 4.96-2.92 10.13-4.18 15.77-4.91.36-.04.83-.23.77-.59-.03-.17-.15-.29-.27-.38M454.5 38c-1.65-.81-4.71-1.28-6.49-1.27-2.08.01-3.64.18-5.66.68-5.75 1.45-11.52 7.14-13.3 12.61-.35 1.1.32.93.71.54 2.78-2.9 5.85-5.44 9.32-7.27 4.35-2.3 9.61-3.39 14.95-4.06.34-.04.83-.25.77-.57-.01-.14.15-.44-.3-.66m114.64 23.11c-.83-1.91-1.9-3.29-3.26-4.86-3.24-3.74-7.85-5.93-13.8-4.77-1.13.22-.87.88-.35 1.06 4.16 1.52 8.61 4.06 10.86 6.34 3.31 3.35 4.76 6.56 6.14 10.06.13.32.35 1.27.64 1.4.47.22.71-2.49.74-3.39.06-1.84-.18-4.02-.97-5.84m18.19 49.02c-.14-2.34-1.18-4.57-2.97-6.08-.74-.63-1.74-1.13-2.44-1.22-1.81-.21-1.91.17-1.08 2.13.83 1.95 1.98 4.33 3.02 6.85.94 2.31 2.07 6.65 3.06 3.91.53-1.47.52-3.83.41-5.59M374.4 50.08c-1.57-1.21-4.37-1.3-6.25-1.28-2.2.01-4.42.37-6.51 1.01-6.44 2-12.24 7.04-14.08 13.64-.35 1.23.33 1.04.74.6 2.94-3.24 6.22-5.97 9.83-8.09 4.96-2.92 10.13-4.18 15.77-4.91.36-.04.83-.23.77-.59-.03-.17-.15-.29-.27-.38M454.5 38c-1.65-.81-4.71-1.28-6.49-1.27-2.08.01-3.64.18-5.66.68-5.75 1.45-11.52 7.14-13.3 12.61-.35 1.1.32.93.71.54 2.78-2.9 5.85-5.44 9.32-7.27 4.35-2.3 9.61-3.39 14.95-4.06.34-.04.83-.25.77-.57-.01-.14.15-.44-.3-.66m114.64 23.11c-.83-1.91-1.9-3.29-3.26-4.86-3.24-3.74-7.85-5.93-13.8-4.77-1.13.22-.87.88-.35 1.06 4.16 1.52 8.61 4.06 10.86 6.34 3.31 3.35 4.76 6.56 6.14 10.06.13.32.35 1.27.64 1.4.47.22.71-2.49.74-3.39.06-1.84-.18-4.02-.97-5.84m18.19 49.02c-.14-2.34-1.18-4.57-2.97-6.08-.74-.63-1.74-1.13-2.44-1.22-1.81-.21-1.91.17-1.08 2.13.83 1.95 1.98 4.33 3.02 6.85.94 2.31 2.07 6.65 3.06 3.91.53-1.47.52-3.83.41-5.59M374.4 50.08c-1.57-1.21-4.37-1.3-6.25-1.28-2.2.01-4.42.37-6.51 1.01-6.44 2-12.24 7.04-14.08 13.64-.35 1.23.33 1.04.74.6 2.94-3.24 6.22-5.97 9.83-8.09 4.96-2.92 10.13-4.18 15.77-4.91.36-.04.83-.23.77-.59-.03-.17-.15-.29-.27-.38M454.5 38c-1.65-.81-4.71-1.28-6.49-1.27-2.08.01-3.64.18-5.66.68-5.75 1.45-11.52 7.14-13.3 12.61-.35 1.1.32.93.71.54 2.78-2.9 5.85-5.44 9.32-7.27 4.35-2.3 9.61-3.39 14.95-4.06.34-.04.83-.25.77-.57-.01-.14.15-.44-.3-.66m114.64 23.11c-.83-1.91-1.9-3.29-3.26-4.86-3.24-3.74-7.85-5.93-13.8-4.77-1.13.22-.87.88-.35 1.06 4.16 1.52 8.61 4.06 10.86 6.34 3.31 3.35 4.76 6.56 6.14 10.06.13.32.35 1.27.64 1.4.47.22.71-2.49.74-3.39.06-1.84-.18-4.02-.97-5.84m18.19 49.02c-.14-2.34-1.18-4.57-2.97-6.08-.74-.63-1.74-1.13-2.44-1.22-1.81-.21-1.91.17-1.08 2.13.83 1.95 1.98 4.33 3.02 6.85.94 2.31 2.07 6.65 3.06 3.91.53-1.47.52-3.83.41-5.59m119.12 68.82c-1.76-2.34-4.79-4.29-7.7-4.8-1.23-.21-2.66-.48-3.89-.15-.15.04-.32.11-.37.26-.06.16.07.33.2.45.67.62 1.5.82 2.32 1.16.89.37 1.76.83 2.56 1.35 1.06.71 2.03 1.54 2.88 2.47 1.47 1.6 2.61 3.48 3.44 5.49.88 2.13 1.15 4.27 1.58 6.51.03.16.1.37.26.37.14.01.24-.13.31-.25.66-1.25.86-2.68.96-4.07.23-3.11-.67-6.3-2.55-8.79m0 0c-1.76-2.34-4.79-4.29-7.7-4.8-1.23-.21-2.66-.48-3.89-.15-.15.04-.32.11-.37.26-.06.16.07.33.2.45.67.62 1.5.82 2.32 1.16.89.37 1.76.83 2.56 1.35 1.06.71 2.03 1.54 2.88 2.47 1.47 1.6 2.61 3.48 3.44 5.49.88 2.13 1.15 4.27 1.58 6.51.03.16.1.37.26.37.14.01.24-.13.31-.25.66-1.25.86-2.68.96-4.07.23-3.11-.67-6.3-2.55-8.79m0 0c-1.76-2.34-4.79-4.29-7.7-4.8-1.23-.21-2.66-.48-3.89-.15-.15.04-.32.11-.37.26-.06.16.07.33.2.45.67.62 1.5.82 2.32 1.16.89.37 1.76.83 2.56 1.35 1.06.71 2.03 1.54 2.88 2.47 1.47 1.6 2.61 3.48 3.44 5.49.88 2.13 1.15 4.27 1.58 6.51.03.16.1.37.26.37.14.01.24-.13.31-.25.66-1.25.86-2.68.96-4.07.23-3.11-.67-6.3-2.55-8.79m12.31 8.8s.53-13.03-11.67-20.39c-11.94-7.21-23.34-1.16-28.89 4.88-.17.18-.45.21-.65.07-.81-.61-3.02-1.81-3.24-1.9-1.39-.6-2.84-1.03-4.35-1.22-3.18-.39-6.49.22-9.3 1.79-3.46 1.93-6 5.35-7.14 9.13-.58 1.91-.8 3.94-.59 5.93.16 1.48.52 3.72 1.48 5.08.22.31.04.72-.33.79-2.9.56-5.5 1.52-7.39 3.08-8.07 6.67-9.4 16.35-9.81 19.55-.4 3.21.13 11.14-7.48 13.28-3.74-6.13-34.1-65.46-38.21-72.6l-2.79-5.32c-.65-1.23-1.35-2.45-2.1-3.63l-1.68-2.65a.87.87 0 0 1 .16-1.1c6.25-5.32 15.6-12.79 15.6-28.63 0-15.95-13.91-25.92-19.92-29.04a.55.55 0 0 1-.23-.76c4.04-7.57 4.68-19.07 1.3-26.45-3.45-7.56-11.85-20.06-28.08-20.06-14.27 0-21.7 7.13-23.35 8.93-.2.22-.54.22-.76.02-3.63-3.4-7.25-3.63-12.47-3.63-5.18 0-10.12 2.92-14.87 8.41-.37.42-.96.57-1.47.36-3.56-1.51-6.64-1.97-13.62-1.42-.47.04-.95-.31-1.09-.76-3.6-12.16-16.11-25.96-36.17-26.43-17.16-.4-28.04 12.46-28.04 12.46s-6.44-5.59-16.05-5.59c-8.34 0-15.13 6.67-16.78 8.43-.23.25-.6.31-.91.16-2.38-1.15-12.74-5.57-25.88-2.63-16.65 3.72-25.52 16.16-28.34 21.26-.16.3-.54.38-.83.2-4.06-2.63-15.18-3.58-23.83 1.95-9.05 5.79-10.28 17.88-10.28 17.88-14.99.81-53.19 3.55-83.02 7.09-29.82 3.55-35.62 7.9-47.07 16.12-11.44 8.22-21.12 23.7-21.12 23.7l-14.99 23.37s-10.63-10.95-27.89-8.55c-13.63 1.9-22.26 10.7-27.88 23.05-5.16-2.58-16.92-3.55-25.15.97-11.12 6.65-14.17 16.27-14.8 23.05l.3 8.06s-11.61 1.13-20.31 8.7c-3.63 3.16-4.91 7.12-5.16 10.68-.23 3.12.35 6.24 1.6 9.09-.45.05-.93.13-1.47.26-1.52.36-2.97 1.17-4.27 2.12-4.14 3.06-6.76 7.77-7.4 12.87-.71 5.68 1.55 13.34 9.56 18.3.21.13.32.38.26.63-3.05 13.4 3.19 22.05 11.38 26.11 1.31.65 2.74 1.04 4.19 1.17-13.54 19.83-15.48 60.62-15.48 60.62.78-.78 7.23 0 12.25 0 3.33-66.55 29.95-70.9 49.67-81.13 15.83-8.3 20.45-15.36 25.31-23.22 3.02-5.3 4.3-7.94 4.81-9.1.44-1 .89-1.99 1.36-2.98 5.13-10.76 28.12-58.36 47.66-88.36 21.29-32.68 36.63-39.45 52.33-42.67 46.26-8.04 126.85-9.39 152.52-9.62h.29c6.09.01 106.47.25 160.32 9.62 15.7 3.22 31.05 9.99 52.34 42.67 19.54 29.99 42.53 77.59 47.66 88.36.47.99.92 1.98 1.36 2.98.51 1.16 1.79 3.8 4.81 9.1 4.88 7.87 9.48 14.92 25.31 23.22 19.72 10.24 46.35 14.58 49.67 81.13 5.03 0 9.41.07 11.51.07-.33-8.88-2.37-38.81-14.82-60.15l-.65-.91c-.39-.54-.29-1.28.21-1.71 2.97-2.54 7.74-6.02 9.02-13.57 1.43-8.35-1.93-13.43-1.93-13.43s11.5-4.27 11.5-14.96c0-10.68-6.83-15.39-6.83-15.39 1.94-3.38 2.91-7.24 2.63-11.14-.13-1.86-.55-3.84-1.44-5.75.06.07 11.9-5.9 11.9-19.9M76.64 246.48c-1.89 1.39-9.59 6.99-13.88 8.81-4.91 2.09-9.55 4.23-16.65 8.23-4.55 2.57-10.24 8.11-13.72 11.74a48 48 0 0 0-3.05 3.49h-.01c-7.7-1.3-12.82-7.8-13.45-13.66-1.25-10.58 8.65-17.04 9.09-17.35.43-.31 2.9-1.69.51-1.49s-8.28 3.1-8.94 3.61-1.55.72-3.14 0c-3.36-1.94-6.56-4.57-6.32-10.97 0-1.54 1.56-5.52 4.02-7.84 2.25-2.14 5.39-2.68 5.71-2.65.37.47.76.93 1.17 1.35.79.82 1.61 1.58 2.46 2.29 5.12 4.35 11.36 7.18 17.96 8.4 9.9 1.82 25.45 3.92 30.18 4.47 4.57.54 6.99.95 7.96 1.13.22.05.27.31.1.44m-34.39-17.1c-4.43-.71-14.18-2.6-18.32-11.18-.4-.83-.7-1.73-.77-2.65-.42-4.72 3.6-7.27 14.33-9.57 9.01-1.94 22.13-3.63 26.1-2.59 2.63.69 6.36 2.88 7.71 9.27.98 4.6.74 5.14 1.05 8.35.3 3.21 1.58 8.26 7.01 13.71 0-.01-32.49-4.6-37.11-5.34m86.2-74.75c-4.11 7.14-34.12 67.07-37.85 73.2-7.61-2.14-7.07-10.07-7.48-13.28-.4-3.2-1.73-12.88-9.81-19.55-8.07-6.67-29.36-2.4-29.36-2.4s-3.59-15.63 11.12-23.62c7.51-3.51 19.35-4.79 28.62 5.76 2.75 3.05 4.33 6.25 4.74 8.9.02.11.16.12.2.01.85-2.5-.45-8.59-6.22-14.67 2.39-9.43 7.26-19.73 22.26-23.02 13.87-3.04 24.73 7.01 24.73 7.01zm451.58-18.7-7.57-11.8s-9.67-15.48-21.11-23.7c-11.45-8.23-17.25-12.58-47.08-16.12-29.82-3.55-68.02-6.29-83.02-7.09-2.44 0-34.03-1.37-57.2-1.76-1.38-.03-2.73-.04-4.04-.06l-4.05.06c-17.31.29-39.31 1.13-50.36 1.54 0 0 1.13-9.62 10.3-13.5 9.76-4.12 16.51 1.08 20.09 4.18.32.28.82.13.94-.29 2.78-9.59 8.94-16.06 16.06-20.8 7.34-4.89 19.36-6.22 28.02-3.77s16 7.44 18.75 10.7 3.36 3.46 2.75 1.83c-1.06-2.34-4.63-7.48-8.49-11.4a.87.87 0 0 1-.09-1.14c2.22-2.92 7.26-6.1 11.74-6.1 4.69 0 9 1.87 12.76 5.35.28.26.37.66.22 1.01-.84 2.01-2.71 8.09-2.59 12.89.09 3.77 1.34 4.83 1.34 1.51.3-5.81 5.57-13.83 8.03-16.28 10.19-10.8 22.73-13.81 35.78-9 12.96 4.77 16.99 15.7 18.36 20.43.13.48.21 1.29-.39 1.72-7.41 5.28-9.79 10.72-10.7 14.92-.6 2.82.05 3.34.74 1.16 1.26-3.16 8.55-13.89 21.33-13.89s19.45 9.75 21.06 12.21 1.94 2.19 1.57.15c-.79-3.72-3.23-7.84-6.05-11.11-.37-.42-.43-1.02-.16-1.51 1.56-2.77 5.71-6.56 10.6-6.56 5.24 0 8.42 2.2 12.27 6.68.22.26.62.25.83-.03 7.34-9.68 18.27-14.9 30.74-10.02 12.7 4.97 15.68 18.13 15.68 21.5 0 3.21-1.54 11.71-4.53 16.21-.26.39-.69.64-1.16.67-8.91.6-13.04 2.82-15.09 3.92-2.11 1.13-2.41 1.8-.2 1.17 2.2-.63 6.49-1.15 10.69-1.15 9.89 0 19.5 6.9 22.11 11.1s4.94 7.37 4.2 18.66c-.63 9.52-9.17 16-11.83 17.79-.4.26-.97.15-1.25-.28M647.66 221c.31-3.21.08-3.74 1.06-8.35 1.35-6.38 5.08-8.57 7.71-9.27 3.97-1.04 17.09.65 26.1 2.59 10.72 2.31 14.74 4.85 14.33 9.57-.08.92-.38 1.81-.78 2.65-4.13 8.59-13.89 10.47-18.32 11.18-4.62.74-37.11 5.33-37.11 5.33 5.43-5.44 6.7-10.49 7.01-13.7m59.2 17.36c0 7.89-7.41 11.67-10.52 11.67-3.12 0-6.71-1.36-8.91-1.54 6.49 3.64 10.13 8.77 10.13 16.4 0 6.32-5.21 11.09-6.99 12.54a.77.77 0 0 1-1.07-.1c-.61-.71-1.24-1.4-1.88-2.07-3.48-3.63-9.16-9.17-13.72-11.74-7.1-4.01-11.73-6.14-16.65-8.23-4.29-1.83-11.98-7.42-13.88-8.81-.16-.13-.11-.39.09-.43.97-.18 3.38-.6 7.96-1.13 4.73-.55 20.28-2.65 30.18-4.47 6.61-1.22 12.85-4.04 17.97-8.4.84-.71 1.66-1.47 2.45-2.29.14-.14.28-.3.42-.45 1.8 1.2 4.42 3.85 4.42 9.05m-2.11-35.69c-.72.28-1.54.13-2.14-.37-7.31-6.06-16.33-7.91-18.93-8.33-.77-.13-1.54-.25-2.31-.39l-5.33-.97s-7.09-1.42-14.63-1.34c-1.63.02-2.59-3.96-2.77-4.94-.69-3.89.64-7.94 3.98-10.24 2.66-1.83 6.88-2.41 9.78-.73 2.46 1.42 4.26 4.06 5.44 6.64.11.23.44.24.55.01.4-.83 1.22-1.99 1.41-2.29.69-1.15 1.46-2.25 2.32-3.29 1.8-2.17 3.99-4.04 6.53-5.28 5.51-2.69 12.27-2 17.26 1.54 4.65 3.31 7.38 8.87 7.38 14.55.01 8.81-5.51 14.29-8.54 15.43m-421.45-39.3c.08.01.08.13 0 .14l-12.11 2.11c-1.78.36-7.35 1.7-9.09 2.19-4.38 1.25-7.96 3.48-10.12 7.18-.95 1.63-2.31 5.01-3.24 8.15-.36 1.2-.62 2.43-.82 3.67l-2.32 14.82c-.05.26-.42.25-.46 0l-2.8-17.5c-.24-1.24-.58-2.45-1.05-3.62-.75-1.87-1.63-3.86-3.14-5.94-2.09-2.89-4.11-4.31-8.12-6.06-1.66-.72-4.48-1.53-9.81-2.56L207 163.4c-.13-.03-.13-.22.01-.24l11.67-1.5c1.78-.36 6.69-1.53 8.43-2.02 4.38-1.25 9.45-3.59 11.61-7.29.78-1.35.83-1.19 1.32-2.6.36-1.02.79-2.02 1.31-3.47.21-.58.69-1.48 1.06-3.82.54-2.21 2.47-14.44 2.7-16.38.23-.73.42-.25.45 0 .72 6.14 2.14 15.37 3.33 19.4.15.62.57 1.52.83 2.25.69 1.95 1.34 2.96 2.26 4.61 1.73 3.09 5.49 5.34 9.13 6.72.81.31 3.48 1.2 4.77 1.58 2.03.59 5.76 1.1 7.3 1.31 1.53.22 10.12 1.42 10.12 1.42m13.42-28.06v.06l-5.15.91c-.75.15-3.13.73-3.86.94-1.86.54-3.58 1.42-4.5 3.02-.4.7-.99 2.19-1.39 3.54-.15.52-.33 1.2-.41 1.73l-1.15 6.31c-.02.11-.18.11-.2 0l-.56-3.95c-.33-2.51-.48-3.31-1.03-5.14 0-.01 0-.01-.01-.02-.32-.81-.88-2.01-1.52-2.9-.89-1.25-1.16-1.55-2.86-2.3-.7-.31-1.91-.66-4.17-1.1l-5.62-1.09c-.06-.01-.06-.1 0-.1l4.96-.65c.75-.15 2.84-.66 3.58-.87 1.86-.54 4.02-1.55 4.94-3.14.33-.58.35-.51.56-1.12.15-.44.34-.87.55-1.5.09-.25.29-.64.45-1.65.23-.95 1.05-6.22 1.15-7.06.1-.31.18-.11.19 0 .31 2.65.91 6.63 1.42 8.36.06.27.24.66.35.97.29.84.57 1.28.96 1.99.73 1.33 2.33 2.3 3.88 2.9.35.13 1.48.52 2.03.68.86.25 2.45.47 3.1.57z"/><g fill="#d4af37"><path d="M865.28 73.29s-16.55-17.77-51.56-17.77c-17.56 0-38.59 3.84-49.93 18.67-9.74 12.74-11.13 32.75-1.17 45.72 4.64 6.05 11.52 12.41 17.85 15.11 6.32 2.7 20.35 6.52 34.9 6.52 6.86 0 11.87-.59 18.32-1.68 0 0 10.42-1.82 15.78-5.09v-41.1h41.55v62.66c-3.32 4.25-21.57 11.41-21.57 11.41-6.35 2.29-16.23 5.08-25.49 6.61-7.69 1.27-20.06 2.68-29.21 2.68-28.13 0-60.63-6.44-79.44-22.68-14.45-12.48-25.76-29.59-25.76-55.87 0-30.18 18.09-54.36 44.93-66.8 5.7-2.64 11.65-4.75 17.73-6.34 16.38-4.28 33.46-5.02 50.31-4.34 15.31.62 30.43 3.34 44.6 9.43 7.04 3.03 13.73 6.86 19.84 11.5 2.51 1.91 5.13 3.99 6.92 6.63l-26.29 23.08M1012.56 176.86c-18.31.14-36.79-2.11-53.67-9.13-13.03-5.42-25.02-13.86-33.81-25.01-9.55-12.13-13.8-27.05-14.06-42.4-.01-.52-.01-1.05-.01-1.57 0-14.74 4.29-29.95 12.77-42.06 8.56-12.21 22.04-21.04 35.56-26.82 5.1-2.18 10.37-3.96 15.74-5.35 17.6-4.56 36.07-5.03 54.16-3.17 30.15 3.1 59.12 14.35 74.95 41.78 4.61 7.99 7.81 16.81 9.14 25.96 4.52 31.04-12.03 60.78-39.4 75.09-1.99 1.04-4.03 2-6.1 2.89-15.85 6.76-33.24 9.19-50.45 9.69-1.59.06-3.2.09-4.82.1m.01-35.26c12.69.08 25.6-2.41 36.19-9.34 10.46-6.84 17.34-18.83 18.24-31.41 1.03-14.46-6.44-27.51-18.26-35.52-9.79-6.63-21.73-9.54-33.53-9.89-11.03-.33-22.21 1.52-32.25 6.14-20.55 9.45-31.34 31.95-22.11 53.56 5.83 13.64 18.62 21.11 32.57 24.33 5.06 1.17 10.24 1.8 15.42 2.03 1.24.06 2.48.09 3.73.1M1135.69 173.8V23.15h45.49v114.87h95.3v35.78zM1294.6 173.8V23.15h89.65q28.68 0 49.53 8.76c13.9 5.84 24.58 14.38 32.05 25.62s11.21 24.89 11.21 40.95-3.74 29.71-11.21 40.95-18.15 19.78-32.05 25.62c-13.89 5.84-30.41 8.76-49.53 8.76h-89.65zm46.11-35.51h39.68c21.31 0 44.87-7.78 49.5-31.62 3.3-16.95-2.63-33.08-19.22-41.41-12.36-6.21-25.77-6.59-39.21-6.59h-30.75z"/></g><path fill="#d4af37" d="M1559.62 173.8V23.15h40.96c15.54 0 31.08.09 46.61 0 12.46-.07 25.65 1.29 37.68 4.66 11.94 3.34 23.44 9.54 30.97 19.39 7.9 10.33 10.77 24 9.21 36.9-2.25 18.59-15.69 30.89-31.81 38.91l37.57 50.78h-52L1648 130.36h-42.83v43.43h-45.55zm45.54-77.73h44.79c5.14 0 10.6-.58 15.51-2.1 4.21-1.3 8.24-3.64 10.79-7.24 4.01-5.67 3.54-13.85-.43-19.55-4.84-6.95-13.92-9.77-22.06-9.77h-48.61v38.66zM1832.99 177.39c-19.14 0-34.63-3.73-47.52-8.65-13.37-5.1-22.87-15.2-29.07-26.36-6.2-11.17-8.34-24.85-8.34-41.06V23.15h46.1v75.76c0 12.56 1.21 23.85 9.02 31.69 6.57 6.6 18.76 10.09 29.82 10.09 11.19 0 25.44-3.9 31.58-10.9 6.13-7.01 7.54-18.32 7.54-30.88V23.15h46.02v78.17c0 16.2-2.2 29.82-8.29 41.06-8.58 15.85-16.62 20.6-29.23 26.36-12.62 5.77-28.49 8.65-47.63 8.65"/><path d="m1994.73 112.66-7.86-1.4c1.19.24 2.4.47 3.66.68q2.055.33 4.2.72"/><path fill="#d4af37" d="M1946.52 46.79c2.76-3.95 6.2-7.47 10.13-10.39 9.96-7.39 22.47-11.57 34.49-14.15 29.09-6.25 59.12-3.33 86.8 6.72 3.04 1.11 13.62 6.14 13.62 6.14l-15.35 32.29c.63-1.32-15.78-7.26-17.16-7.71-20.08-6.53-45.42-9.62-65.65-1.94-3.2 1.21-7.71 4.22-7.71 8.1 0 .1 0 .2.01.31h.09c0 5.97 7.07 8.42 11.74 9.87 7.98 2.47 16.37 3.95 24.66 4.9-2.1-.32-4.21-.63-6.31-.95 19.03 2.55 38.18 5.15 56.26 11.93 7.57 3.17 14.58 7.74 19.25 14.61 4.87 7.16 8.05 15.19 7.59 24-.13 2.44-.53 4.88-1.23 7.22-4.24 14.32-16.97 25.81-30.47 31.47-27.85 11.69-62.52 11.05-91.6 4.19-7.48-1.76-14.86-4.05-22.06-6.72-1.42-.53-18.49-8.58-18.33-8.75l16.73-32.03c3.23 3.11 22.94 10.22 28.97 11.82 11.43 3.04 23.16 5.22 35.01 5.36 9.9.12 25.49.17 33.15-7.13 1.03-.98 1.93-2.16 2.3-3.54.51-1.95-.13-4.06-1.29-5.71-1.95-2.77-5.01-4.66-8.19-5.69-8.62-2.8-18.13-3.51-27.05-4.98-16.42-2.72-34.34-3.83-49.65-10.87-10.9-5.01-25.49-16.55-25.49-30.05-1.76-10.21 1.03-20.17 6.74-28.32"/><path d="M2051.7 130.79h-.09v-.04z"/><path fill="#d4af37" d="M2118.66 173.8V23.15h45.84v55.12h83.64V23.15h45.94V173.8h-45.94v-59.14h-83.64v59.14z"/><g fill="#d4af37"><path d="M794.78 328.43v-91.2h38.23c12.49 0 26.12 1.38 36.18 9.42 9.3 7.43 15.52 18.7 16.7 30.56 1.85 18.63-8.59 39.27-26.32 46.43-7.89 3.19-15.22 4.79-26.57 4.79zm12.23-10.19c15.5 0 33.6 2.72 47.98-4.21 4.94-2.38 9.3-5.94 12.63-10.3 7.8-10.23 9.27-24.88 3.78-36.51-7.27-15.4-22.85-20.95-38.85-20.95h-25.54zM953.17 328.43v-91.2h67.5v9.04h-56.99v30.84h51.15v9.17h-51.15v33.1h58.94v9.04h-69.45zM1110.77 328.43v-82.02h-34.06v-9.17h79.47v9.17h-34.34v82.02zM1197.62 328.43l44.09-91.2h11.9l45.68 91.2h-12.82l-11.2-24.06h-54.29l-11.44 24.06zm27.17-33.1h46.27l-23.18-47.91zM1446.58 328.43v-91.2h11.52v80.87h53.51v10.32h-65.03zM1574.18 328.43v-91.2h11.62v91.2zM1359.68 328.43v-91.2h11.62v91.2zM1660.86 328.43v-91.2h11.36l51.77 63.01c.59.62 1.3 1.46 2.14 2.53.83 1.06 1.67 2.15 2.51 3.26a73 73 0 0 1 2.14 2.99h.74v-71.78h11.36v91.2h-10.18l-52.8-64.34c-.69-.88-1.77-2.28-3.25-4.19-1.48-1.9-2.75-3.52-3.83-4.85h-.59v73.38h-11.37zM1889.89 256.54c-9.6-10.8-28.81-13.83-41.96-9.24-4.57 1.59-8.73 4.2-12.55 7.18-3.15 2.46-6.13 5.24-8.32 8.59-10.7 16.37-3.96 39.68 11.74 50.32 5.64 3.82 13.84 5.64 20.52 5.75 5.22.09 13.49-.45 20.84-2.78 3.81-1.21 5.66-4.23 5.66-4.23l.17-22.24v-7.63h11.05v35.85c0 .65-4.8 3.38-5.53 3.88-10.14 6.88-24.21 7.38-35.99 6.4-11.12-.93-21.98-3.84-30.34-11.57-7.63-7.06-12.51-16.73-14.11-26.98-1.28-8.22-.44-16.8 2.7-24.53a46.6 46.6 0 0 1 5.25-9.56c5.34-7.47 12.92-13.3 21.5-16.55 10.5-3.97 22.13-4.04 33.2-2.16 9.56 1.62 16.92 5.64 24 12.19"/></g></svg>